G75*
%MOIN*%
%OFA0B0*%
%FSLAX25Y25*%
%IPPOS*%
%LPD*%
%AMOC8*
5,1,8,0,0,1.08239X$1,22.5*
%
%ADD10R,0.05918X0.06706*%
%ADD11C,0.05556*%
%ADD12R,0.06706X0.05918*%
%ADD13C,0.07400*%
%ADD14C,0.05950*%
%ADD15C,0.13800*%
%ADD16C,0.07887*%
%ADD17C,0.09461*%
%ADD18C,0.07887*%
%ADD19C,0.10249*%
%ADD20C,0.10550*%
%ADD21C,0.06343*%
%ADD22C,0.06950*%
%ADD23C,0.06400*%
%ADD24C,0.08400*%
%ADD25R,0.06800X0.03300*%
%ADD26R,0.03300X0.06800*%
%ADD27R,0.08800X0.09800*%
%ADD28C,0.04762*%
D10*
X0107760Y0121500D03*
X0115240Y0121500D03*
X0147760Y0121500D03*
X0155240Y0121500D03*
X0227760Y0211500D03*
X0235240Y0211500D03*
X0235240Y0331500D03*
X0227760Y0331500D03*
X0297760Y0331500D03*
X0305240Y0331500D03*
D11*
X0321500Y0181500D03*
X0321500Y0161500D03*
X0371500Y0161500D03*
X0371500Y0181500D03*
D12*
X0121500Y0055240D03*
X0121500Y0047760D03*
D13*
X0026500Y0026500D03*
X0026500Y0036500D03*
X0026500Y0046500D03*
X0026500Y0056500D03*
X0026500Y0066500D03*
X0026500Y0076500D03*
X0026500Y0086500D03*
X0026500Y0096500D03*
X0026500Y0106500D03*
X0026500Y0116500D03*
X0026500Y0126500D03*
X0026500Y0136500D03*
X0026500Y0146500D03*
X0026500Y0156500D03*
X0026500Y0166500D03*
X0026500Y0176500D03*
X0026500Y0186500D03*
X0026500Y0196500D03*
X0026500Y0206500D03*
X0026500Y0216500D03*
X0036500Y0216500D03*
X0036500Y0206500D03*
X0036500Y0196500D03*
X0036500Y0186500D03*
X0036500Y0176500D03*
X0036500Y0166500D03*
X0036500Y0156500D03*
X0036500Y0146500D03*
X0036500Y0136500D03*
X0036500Y0126500D03*
X0036500Y0116500D03*
X0036500Y0106500D03*
X0036500Y0096500D03*
X0036500Y0086500D03*
X0036500Y0076500D03*
X0036500Y0066500D03*
X0036500Y0056500D03*
X0036500Y0046500D03*
X0036500Y0036500D03*
X0036500Y0026500D03*
X0186500Y0026500D03*
X0186500Y0036500D03*
X0186500Y0046500D03*
X0196500Y0046500D03*
X0196500Y0036500D03*
X0196500Y0026500D03*
X0196500Y0056500D03*
X0196500Y0066500D03*
X0196500Y0076500D03*
X0186500Y0076500D03*
X0186500Y0066500D03*
X0186500Y0056500D03*
X0186500Y0086500D03*
X0186500Y0096500D03*
X0186500Y0106500D03*
X0196500Y0106500D03*
X0196500Y0096500D03*
X0196500Y0086500D03*
X0196500Y0116500D03*
X0196500Y0126500D03*
X0196500Y0136500D03*
X0186500Y0136500D03*
X0186500Y0126500D03*
X0186500Y0116500D03*
X0186500Y0146500D03*
X0186500Y0156500D03*
X0186500Y0166500D03*
X0196500Y0166500D03*
X0196500Y0156500D03*
X0196500Y0146500D03*
X0196500Y0176500D03*
X0196500Y0186500D03*
X0196500Y0196500D03*
X0186500Y0196500D03*
X0186500Y0186500D03*
X0186500Y0176500D03*
X0186500Y0206500D03*
X0186500Y0216500D03*
X0196500Y0216500D03*
X0196500Y0206500D03*
X0261500Y0201500D03*
X0281500Y0201500D03*
X0261500Y0161500D03*
X0286500Y0141500D03*
X0326500Y0141500D03*
X0321500Y0201500D03*
X0326500Y0251500D03*
X0326500Y0281500D03*
X0286500Y0281500D03*
X0286500Y0251500D03*
X0291500Y0036500D03*
X0291500Y0016500D03*
X0251500Y0016500D03*
X0251500Y0036500D03*
D14*
X0241500Y0356500D03*
X0231500Y0356500D03*
X0221500Y0356500D03*
X0291500Y0356500D03*
X0301500Y0356500D03*
X0311500Y0356500D03*
D15*
X0316500Y0371500D03*
X0286500Y0371500D03*
X0246500Y0371500D03*
X0216500Y0371500D03*
X0341500Y0084000D03*
X0341500Y0039000D03*
D16*
X0371500Y0217957D02*
X0371500Y0225043D01*
X0357543Y0221500D02*
X0350457Y0221500D01*
X0371500Y0317957D02*
X0371500Y0325043D01*
X0357543Y0321500D02*
X0350457Y0321500D01*
D17*
X0384000Y0305000D03*
X0384000Y0338000D03*
X0384000Y0238000D03*
X0384000Y0205000D03*
D18*
X0071500Y0076500D03*
X0071500Y0036500D03*
D19*
X0081500Y0026500D03*
X0081500Y0046500D03*
X0081500Y0066500D03*
X0081500Y0086500D03*
X0061500Y0086500D03*
X0061500Y0066500D03*
X0061500Y0046500D03*
X0061500Y0026500D03*
D20*
X0329500Y0031000D03*
X0329500Y0092000D03*
D21*
X0316500Y0084000D03*
X0316500Y0074000D03*
X0306500Y0069000D03*
X0306500Y0079000D03*
X0316500Y0064000D03*
X0316500Y0054000D03*
X0316500Y0044000D03*
X0306500Y0039000D03*
X0306500Y0049000D03*
X0306500Y0059000D03*
D22*
X0361000Y0045500D03*
X0361000Y0035500D03*
X0361000Y0077500D03*
X0361000Y0087500D03*
D23*
X0141500Y0249000D03*
X0141500Y0259000D03*
X0141500Y0269000D03*
X0141500Y0279000D03*
X0141500Y0289000D03*
X0141500Y0299000D03*
X0141500Y0309000D03*
X0141500Y0319000D03*
X0141500Y0329000D03*
X0141500Y0339000D03*
X0141500Y0349000D03*
X0141500Y0359000D03*
X0141500Y0369000D03*
X0141500Y0379000D03*
X0081500Y0379000D03*
X0081500Y0369000D03*
X0081500Y0359000D03*
X0081500Y0349000D03*
X0081500Y0339000D03*
X0081500Y0329000D03*
X0081500Y0319000D03*
X0081500Y0309000D03*
X0081500Y0299000D03*
X0081500Y0289000D03*
X0081500Y0279000D03*
X0081500Y0269000D03*
X0081500Y0259000D03*
X0081500Y0249000D03*
D24*
X0341500Y0261500D03*
X0341500Y0281500D03*
X0381500Y0281500D03*
X0381500Y0261500D03*
X0381500Y0141500D03*
X0381500Y0121500D03*
X0341500Y0121500D03*
X0341500Y0141500D03*
D25*
X0242000Y0166500D03*
X0242000Y0171500D03*
X0242000Y0176500D03*
X0242000Y0181500D03*
X0242000Y0186500D03*
X0242000Y0191500D03*
X0242000Y0196500D03*
X0221000Y0196500D03*
X0221000Y0191500D03*
X0221000Y0186500D03*
X0221000Y0181500D03*
X0221000Y0176500D03*
X0221000Y0171500D03*
X0221000Y0166500D03*
D26*
X0169000Y0062000D03*
X0164000Y0062000D03*
X0159000Y0062000D03*
X0154000Y0062000D03*
X0149000Y0062000D03*
X0144000Y0062000D03*
X0139000Y0062000D03*
X0134000Y0062000D03*
X0134000Y0041000D03*
X0139000Y0041000D03*
X0144000Y0041000D03*
X0149000Y0041000D03*
X0154000Y0041000D03*
X0159000Y0041000D03*
X0164000Y0041000D03*
X0169000Y0041000D03*
D27*
X0159000Y0081500D03*
X0144000Y0081500D03*
X0144000Y0101500D03*
X0159000Y0101500D03*
X0119000Y0101500D03*
X0104000Y0101500D03*
X0104000Y0081500D03*
X0119000Y0081500D03*
D28*
X0109000Y0064000D03*
X0109000Y0036500D03*
X0071500Y0056500D03*
X0081500Y0104000D03*
X0131500Y0121500D03*
X0114000Y0166500D03*
X0114000Y0191500D03*
X0114000Y0216500D03*
X0114000Y0241500D03*
X0111500Y0299000D03*
X0111500Y0341500D03*
X0111500Y0379000D03*
X0059000Y0319000D03*
X0036500Y0341500D03*
X0036500Y0379000D03*
X0021500Y0299000D03*
X0021500Y0259000D03*
X0176500Y0379000D03*
X0246500Y0346500D03*
X0251500Y0299000D03*
X0311500Y0299000D03*
X0316500Y0346500D03*
X0371500Y0366500D03*
X0311500Y0229000D03*
X0261500Y0229000D03*
X0249000Y0211500D03*
X0234000Y0199000D03*
X0219000Y0211500D03*
X0229000Y0221500D03*
X0211500Y0196500D03*
X0211500Y0166500D03*
X0261500Y0141500D03*
X0234000Y0114000D03*
X0216500Y0106500D03*
X0216500Y0066500D03*
X0259000Y0081500D03*
X0291500Y0121500D03*
X0346500Y0171500D03*
X0271500Y0026500D03*
X0151500Y0026500D03*
X0186500Y0299000D03*
M02*
