G75*
%MOIN*%
%OFA0B0*%
%FSLAX25Y25*%
%IPPOS*%
%LPD*%
%AMOC8*
5,1,8,0,0,1.08239X$1,22.5*
%
%ADD10C,0.00600*%
%ADD11C,0.03000*%
%ADD12C,0.01200*%
%ADD13C,0.02000*%
D10*
X0021500Y0024000D02*
X0024000Y0021500D01*
X0029000Y0021500D01*
X0031500Y0024000D01*
X0034000Y0021500D01*
X0039000Y0021500D01*
X0041500Y0024000D01*
X0041500Y0029000D01*
X0039000Y0031500D01*
X0024000Y0031500D01*
X0021500Y0034000D01*
X0021500Y0039000D01*
X0024000Y0041500D01*
X0021500Y0044000D01*
X0021500Y0049000D01*
X0024000Y0051500D01*
X0021500Y0054000D01*
X0021500Y0059000D01*
X0024000Y0061500D01*
X0021500Y0064000D01*
X0021500Y0069000D01*
X0024000Y0071500D01*
X0021500Y0074000D01*
X0021500Y0079000D01*
X0024000Y0081500D01*
X0021500Y0084000D01*
X0021500Y0089000D01*
X0024000Y0091500D01*
X0039000Y0091500D01*
X0041500Y0089000D01*
X0041500Y0084000D01*
X0039000Y0081500D01*
X0024000Y0081500D01*
X0024000Y0091500D02*
X0021500Y0094000D01*
X0021500Y0099000D01*
X0024000Y0101500D01*
X0039000Y0101500D01*
X0041500Y0104000D01*
X0041500Y0109000D01*
X0039000Y0111500D01*
X0024000Y0111500D01*
X0021500Y0109000D01*
X0021500Y0104000D01*
X0024000Y0101500D01*
X0024000Y0111500D02*
X0021500Y0114000D01*
X0021500Y0119000D01*
X0024000Y0121500D01*
X0039000Y0121500D01*
X0041500Y0119000D01*
X0041500Y0114000D01*
X0039000Y0111500D01*
X0039000Y0121500D02*
X0041500Y0124000D01*
X0041500Y0129000D01*
X0039000Y0131500D01*
X0024000Y0131500D01*
X0021500Y0134000D01*
X0021500Y0139000D01*
X0024000Y0141500D01*
X0039000Y0141500D01*
X0041500Y0139000D01*
X0041500Y0134000D01*
X0039000Y0131500D01*
X0039000Y0141500D02*
X0041500Y0144000D01*
X0041500Y0149000D01*
X0039000Y0151500D01*
X0024000Y0151500D01*
X0021500Y0149000D01*
X0021500Y0144000D01*
X0024000Y0141500D01*
X0024000Y0151500D02*
X0021500Y0154000D01*
X0021500Y0159000D01*
X0024000Y0161500D01*
X0039000Y0161500D01*
X0041500Y0159000D01*
X0041500Y0154000D01*
X0039000Y0151500D01*
X0039000Y0161500D02*
X0041500Y0164000D01*
X0041500Y0169000D01*
X0039000Y0171500D01*
X0024000Y0171500D01*
X0021500Y0174000D01*
X0021500Y0179000D01*
X0024000Y0181500D01*
X0039000Y0181500D01*
X0041500Y0179000D01*
X0041500Y0174000D01*
X0039000Y0171500D01*
X0039000Y0181500D02*
X0041500Y0184000D01*
X0041500Y0189000D01*
X0039000Y0191500D01*
X0024000Y0191500D01*
X0021500Y0189000D01*
X0021500Y0184000D01*
X0024000Y0181500D01*
X0024000Y0171500D02*
X0021500Y0169000D01*
X0021500Y0164000D01*
X0024000Y0161500D01*
X0024000Y0131500D02*
X0021500Y0129000D01*
X0021500Y0124000D01*
X0024000Y0121500D01*
X0039000Y0101500D02*
X0041500Y0099000D01*
X0041500Y0094000D01*
X0039000Y0091500D01*
X0039000Y0081500D02*
X0041500Y0079000D01*
X0041500Y0074000D01*
X0039000Y0071500D01*
X0024000Y0071500D01*
X0024000Y0061500D02*
X0039000Y0061500D01*
X0041500Y0064000D01*
X0041500Y0069000D01*
X0039000Y0071500D01*
X0039000Y0061500D02*
X0041500Y0059000D01*
X0041500Y0054000D01*
X0039000Y0051500D01*
X0024000Y0051500D01*
X0024000Y0041500D02*
X0039000Y0041500D01*
X0041500Y0039000D01*
X0041500Y0034000D01*
X0039000Y0031500D01*
X0039000Y0041500D02*
X0041500Y0044000D01*
X0041500Y0049000D01*
X0039000Y0051500D01*
X0056500Y0041500D02*
X0056500Y0031500D01*
X0066500Y0021500D02*
X0076500Y0021500D01*
X0086500Y0031500D02*
X0086500Y0041500D01*
X0076500Y0051500D02*
X0066500Y0051500D01*
X0066500Y0061500D02*
X0076500Y0061500D01*
X0086500Y0071500D02*
X0086500Y0081500D01*
X0076500Y0091500D02*
X0066500Y0091500D01*
X0056500Y0081500D02*
X0056500Y0071500D01*
X0024000Y0031500D02*
X0021500Y0029000D01*
X0021500Y0024000D01*
X0096500Y0074000D02*
X0096500Y0109000D01*
X0126500Y0109000D01*
X0126500Y0074000D01*
X0096500Y0074000D01*
X0131500Y0056500D02*
X0131500Y0046500D01*
X0171500Y0046500D01*
X0171500Y0056500D01*
X0131500Y0056500D01*
X0136500Y0074000D02*
X0136500Y0109000D01*
X0166500Y0109000D01*
X0166500Y0074000D01*
X0136500Y0074000D01*
X0181500Y0074000D02*
X0181500Y0079000D01*
X0184000Y0081500D01*
X0181500Y0084000D01*
X0181500Y0089000D01*
X0184000Y0091500D01*
X0199000Y0091500D01*
X0201500Y0089000D01*
X0201500Y0084000D01*
X0199000Y0081500D01*
X0184000Y0081500D01*
X0181500Y0074000D02*
X0184000Y0071500D01*
X0181500Y0069000D01*
X0181500Y0064000D01*
X0184000Y0061500D01*
X0181500Y0059000D01*
X0181500Y0054000D01*
X0184000Y0051500D01*
X0181500Y0049000D01*
X0181500Y0044000D01*
X0184000Y0041500D01*
X0181500Y0039000D01*
X0181500Y0034000D01*
X0184000Y0031500D01*
X0181500Y0029000D01*
X0181500Y0024000D01*
X0184000Y0021500D01*
X0189000Y0021500D01*
X0191500Y0024000D01*
X0194000Y0021500D01*
X0199000Y0021500D01*
X0201500Y0024000D01*
X0201500Y0029000D01*
X0199000Y0031500D01*
X0184000Y0031500D01*
X0184000Y0041500D02*
X0199000Y0041500D01*
X0201500Y0039000D01*
X0201500Y0034000D01*
X0199000Y0031500D01*
X0199000Y0041500D02*
X0201500Y0044000D01*
X0201500Y0049000D01*
X0199000Y0051500D01*
X0184000Y0051500D01*
X0184000Y0061500D02*
X0199000Y0061500D01*
X0201500Y0064000D01*
X0201500Y0069000D01*
X0199000Y0071500D01*
X0184000Y0071500D01*
X0199000Y0071500D02*
X0201500Y0074000D01*
X0201500Y0079000D01*
X0199000Y0081500D01*
X0199000Y0091500D02*
X0201500Y0094000D01*
X0201500Y0099000D01*
X0199000Y0101500D01*
X0184000Y0101500D01*
X0181500Y0104000D01*
X0181500Y0109000D01*
X0184000Y0111500D01*
X0199000Y0111500D01*
X0201500Y0109000D01*
X0201500Y0104000D01*
X0199000Y0101500D01*
X0199000Y0111500D02*
X0201500Y0114000D01*
X0201500Y0119000D01*
X0199000Y0121500D01*
X0184000Y0121500D01*
X0181500Y0119000D01*
X0181500Y0114000D01*
X0184000Y0111500D01*
X0184000Y0121500D02*
X0181500Y0124000D01*
X0181500Y0129000D01*
X0184000Y0131500D01*
X0199000Y0131500D01*
X0201500Y0134000D01*
X0201500Y0139000D01*
X0199000Y0141500D01*
X0184000Y0141500D01*
X0181500Y0139000D01*
X0181500Y0134000D01*
X0184000Y0131500D01*
X0184000Y0141500D02*
X0181500Y0144000D01*
X0181500Y0149000D01*
X0184000Y0151500D01*
X0199000Y0151500D01*
X0201500Y0149000D01*
X0201500Y0144000D01*
X0199000Y0141500D01*
X0199000Y0151500D02*
X0201500Y0154000D01*
X0201500Y0159000D01*
X0199000Y0161500D01*
X0184000Y0161500D01*
X0181500Y0159000D01*
X0181500Y0154000D01*
X0184000Y0151500D01*
X0184000Y0161500D02*
X0181500Y0164000D01*
X0181500Y0169000D01*
X0184000Y0171500D01*
X0199000Y0171500D01*
X0201500Y0174000D01*
X0201500Y0179000D01*
X0199000Y0181500D01*
X0184000Y0181500D01*
X0181500Y0179000D01*
X0181500Y0174000D01*
X0184000Y0171500D01*
X0184000Y0181500D02*
X0181500Y0184000D01*
X0181500Y0189000D01*
X0184000Y0191500D01*
X0199000Y0191500D01*
X0201500Y0189000D01*
X0201500Y0184000D01*
X0199000Y0181500D01*
X0199000Y0171500D02*
X0201500Y0169000D01*
X0201500Y0164000D01*
X0199000Y0161500D01*
X0226500Y0164000D02*
X0236500Y0164000D01*
X0236500Y0199000D01*
X0226500Y0199000D01*
X0226500Y0164000D01*
X0256500Y0166500D02*
X0266500Y0166500D01*
X0266500Y0171500D01*
X0256500Y0171500D02*
X0256500Y0166500D01*
X0256500Y0191500D02*
X0256500Y0196500D01*
X0266500Y0196500D01*
X0266500Y0191500D01*
X0286500Y0196500D02*
X0291500Y0196500D01*
X0286500Y0196500D02*
X0286500Y0206500D01*
X0291500Y0206500D01*
X0311500Y0206500D02*
X0316500Y0206500D01*
X0316500Y0196500D01*
X0311500Y0196500D01*
X0316500Y0186000D02*
X0316500Y0157000D01*
X0326500Y0157000D01*
X0326500Y0186000D01*
X0316500Y0186000D01*
X0346500Y0201500D02*
X0346500Y0214000D01*
X0346500Y0201500D02*
X0376500Y0201500D01*
X0387000Y0211500D02*
X0387000Y0231500D01*
X0381500Y0224000D02*
X0384000Y0221500D01*
X0381500Y0219000D01*
X0384000Y0221500D02*
X0379000Y0221500D01*
X0376500Y0241500D02*
X0346500Y0241500D01*
X0346500Y0229000D01*
X0342750Y0254000D02*
X0342750Y0256000D01*
X0342750Y0254000D02*
X0380250Y0254000D01*
X0380250Y0256000D01*
X0380250Y0267000D02*
X0380250Y0276000D01*
X0380250Y0287000D02*
X0380250Y0289000D01*
X0342750Y0289000D01*
X0342750Y0287000D01*
X0342750Y0276000D02*
X0342750Y0267000D01*
X0321500Y0276500D02*
X0316500Y0276500D01*
X0321500Y0276500D02*
X0321500Y0286500D01*
X0316500Y0286500D01*
X0296500Y0286500D02*
X0291500Y0286500D01*
X0291500Y0276500D01*
X0296500Y0276500D01*
X0296500Y0256500D02*
X0291500Y0256500D01*
X0291500Y0246500D01*
X0296500Y0246500D01*
X0316500Y0246500D02*
X0321500Y0246500D01*
X0321500Y0256500D01*
X0316500Y0256500D01*
X0346500Y0301500D02*
X0346500Y0314000D01*
X0346500Y0301500D02*
X0376500Y0301500D01*
X0387000Y0311500D02*
X0387000Y0331500D01*
X0381500Y0324000D02*
X0384000Y0321500D01*
X0381500Y0319000D01*
X0384000Y0321500D02*
X0379000Y0321500D01*
X0376500Y0341500D02*
X0346500Y0341500D01*
X0346500Y0329000D01*
X0324000Y0346000D02*
X0324000Y0366000D01*
X0324000Y0376500D02*
X0324000Y0390000D01*
X0279000Y0390000D01*
X0279000Y0376500D01*
X0279000Y0366000D02*
X0279000Y0346000D01*
X0324000Y0346000D01*
X0301500Y0381500D02*
X0301500Y0386500D01*
X0304000Y0384000D01*
X0301500Y0386500D02*
X0299000Y0384000D01*
X0254000Y0390000D02*
X0254000Y0376500D01*
X0254000Y0366000D02*
X0254000Y0346000D01*
X0209000Y0346000D01*
X0209000Y0366000D01*
X0209000Y0376500D02*
X0209000Y0390000D01*
X0254000Y0390000D01*
X0234000Y0384000D02*
X0231500Y0386500D01*
X0229000Y0384000D01*
X0231500Y0386500D02*
X0231500Y0381500D01*
X0147500Y0419000D02*
X0126500Y0419000D01*
X0126500Y0413953D01*
X0126500Y0410016D02*
X0126500Y0404969D01*
X0126500Y0401031D02*
X0126500Y0395984D01*
X0126500Y0392047D02*
X0126500Y0387000D01*
X0121953Y0387000D01*
X0118016Y0387000D02*
X0113469Y0387000D01*
X0109531Y0387000D02*
X0104984Y0387000D01*
X0101047Y0387000D02*
X0096500Y0387000D01*
X0096500Y0392047D01*
X0096500Y0395984D02*
X0096500Y0401031D01*
X0096500Y0404969D02*
X0096500Y0410016D01*
X0096500Y0413953D02*
X0096500Y0419000D01*
X0096500Y0426500D01*
X0126500Y0426500D01*
X0126500Y0419000D01*
X0096500Y0419000D01*
X0075500Y0419000D01*
X0075500Y0243000D01*
X0147500Y0243000D01*
X0147500Y0419000D01*
X0184000Y0221500D02*
X0181500Y0219000D01*
X0181500Y0214000D01*
X0184000Y0211500D01*
X0199000Y0211500D01*
X0201500Y0209000D01*
X0201500Y0204000D01*
X0199000Y0201500D01*
X0184000Y0201500D01*
X0181500Y0204000D01*
X0181500Y0209000D01*
X0184000Y0211500D01*
X0184000Y0201500D02*
X0181500Y0199000D01*
X0181500Y0194000D01*
X0184000Y0191500D01*
X0199000Y0191500D02*
X0201500Y0194000D01*
X0201500Y0199000D01*
X0199000Y0201500D01*
X0199000Y0211500D02*
X0201500Y0214000D01*
X0201500Y0219000D01*
X0199000Y0221500D01*
X0194000Y0221500D01*
X0191500Y0219000D01*
X0189000Y0221500D01*
X0184000Y0221500D01*
X0199000Y0131500D02*
X0201500Y0129000D01*
X0201500Y0124000D01*
X0199000Y0121500D01*
X0184000Y0101500D02*
X0181500Y0099000D01*
X0181500Y0094000D01*
X0184000Y0091500D01*
X0199000Y0061500D02*
X0201500Y0059000D01*
X0201500Y0054000D01*
X0199000Y0051500D01*
X0256500Y0041500D02*
X0256500Y0031500D01*
X0261500Y0031500D01*
X0261500Y0021500D02*
X0256500Y0021500D01*
X0256500Y0011500D01*
X0261500Y0011500D01*
X0281500Y0011500D02*
X0286500Y0011500D01*
X0286500Y0021500D01*
X0281500Y0021500D01*
X0281500Y0031500D02*
X0286500Y0031500D01*
X0286500Y0041500D01*
X0281500Y0041500D01*
X0261500Y0041500D02*
X0256500Y0041500D01*
X0300000Y0030000D02*
X0300000Y0093000D01*
X0321500Y0093000D01*
X0337750Y0093000D02*
X0384500Y0093000D01*
X0384500Y0030000D01*
X0337750Y0030000D01*
X0321500Y0030000D02*
X0300000Y0030000D01*
X0376500Y0061500D02*
X0381500Y0061500D01*
X0379000Y0059000D01*
X0381500Y0061500D02*
X0379000Y0064000D01*
X0380250Y0114000D02*
X0342750Y0114000D01*
X0342750Y0116000D01*
X0342750Y0127000D02*
X0342750Y0136000D01*
X0342750Y0147000D02*
X0342750Y0149000D01*
X0380250Y0149000D01*
X0380250Y0147000D01*
X0376500Y0157000D02*
X0376500Y0186000D01*
X0366500Y0186000D01*
X0366500Y0157000D01*
X0376500Y0157000D01*
X0380250Y0136000D02*
X0380250Y0127000D01*
X0380250Y0116000D02*
X0380250Y0114000D01*
X0321500Y0136500D02*
X0316500Y0136500D01*
X0321500Y0136500D02*
X0321500Y0146500D01*
X0316500Y0146500D01*
X0296500Y0146500D02*
X0291500Y0146500D01*
X0291500Y0136500D01*
X0296500Y0136500D01*
X0041500Y0194000D02*
X0039000Y0191500D01*
X0041500Y0194000D02*
X0041500Y0199000D01*
X0039000Y0201500D01*
X0024000Y0201500D01*
X0021500Y0204000D01*
X0021500Y0209000D01*
X0024000Y0211500D01*
X0039000Y0211500D01*
X0041500Y0209000D01*
X0041500Y0204000D01*
X0039000Y0201500D01*
X0039000Y0211500D02*
X0041500Y0214000D01*
X0041500Y0219000D01*
X0039000Y0221500D01*
X0034000Y0221500D01*
X0031500Y0219000D01*
X0029000Y0221500D01*
X0024000Y0221500D01*
X0021500Y0219000D01*
X0021500Y0214000D01*
X0024000Y0211500D01*
X0024000Y0201500D02*
X0021500Y0199000D01*
X0021500Y0194000D01*
X0024000Y0191500D01*
D11*
X0350000Y0141500D02*
X0350002Y0141577D01*
X0350008Y0141654D01*
X0350018Y0141731D01*
X0350032Y0141807D01*
X0350049Y0141882D01*
X0350071Y0141956D01*
X0350096Y0142029D01*
X0350126Y0142101D01*
X0350158Y0142171D01*
X0350195Y0142239D01*
X0350234Y0142305D01*
X0350277Y0142369D01*
X0350324Y0142431D01*
X0350373Y0142490D01*
X0350426Y0142547D01*
X0350481Y0142601D01*
X0350539Y0142652D01*
X0350600Y0142700D01*
X0350663Y0142745D01*
X0350728Y0142786D01*
X0350795Y0142824D01*
X0350864Y0142859D01*
X0350935Y0142889D01*
X0351007Y0142917D01*
X0351081Y0142940D01*
X0351155Y0142960D01*
X0351231Y0142976D01*
X0351307Y0142988D01*
X0351384Y0142996D01*
X0351461Y0143000D01*
X0351539Y0143000D01*
X0351616Y0142996D01*
X0351693Y0142988D01*
X0351769Y0142976D01*
X0351845Y0142960D01*
X0351919Y0142940D01*
X0351993Y0142917D01*
X0352065Y0142889D01*
X0352136Y0142859D01*
X0352205Y0142824D01*
X0352272Y0142786D01*
X0352337Y0142745D01*
X0352400Y0142700D01*
X0352461Y0142652D01*
X0352519Y0142601D01*
X0352574Y0142547D01*
X0352627Y0142490D01*
X0352676Y0142431D01*
X0352723Y0142369D01*
X0352766Y0142305D01*
X0352805Y0142239D01*
X0352842Y0142171D01*
X0352874Y0142101D01*
X0352904Y0142029D01*
X0352929Y0141956D01*
X0352951Y0141882D01*
X0352968Y0141807D01*
X0352982Y0141731D01*
X0352992Y0141654D01*
X0352998Y0141577D01*
X0353000Y0141500D01*
X0352998Y0141423D01*
X0352992Y0141346D01*
X0352982Y0141269D01*
X0352968Y0141193D01*
X0352951Y0141118D01*
X0352929Y0141044D01*
X0352904Y0140971D01*
X0352874Y0140899D01*
X0352842Y0140829D01*
X0352805Y0140761D01*
X0352766Y0140695D01*
X0352723Y0140631D01*
X0352676Y0140569D01*
X0352627Y0140510D01*
X0352574Y0140453D01*
X0352519Y0140399D01*
X0352461Y0140348D01*
X0352400Y0140300D01*
X0352337Y0140255D01*
X0352272Y0140214D01*
X0352205Y0140176D01*
X0352136Y0140141D01*
X0352065Y0140111D01*
X0351993Y0140083D01*
X0351919Y0140060D01*
X0351845Y0140040D01*
X0351769Y0140024D01*
X0351693Y0140012D01*
X0351616Y0140004D01*
X0351539Y0140000D01*
X0351461Y0140000D01*
X0351384Y0140004D01*
X0351307Y0140012D01*
X0351231Y0140024D01*
X0351155Y0140040D01*
X0351081Y0140060D01*
X0351007Y0140083D01*
X0350935Y0140111D01*
X0350864Y0140141D01*
X0350795Y0140176D01*
X0350728Y0140214D01*
X0350663Y0140255D01*
X0350600Y0140300D01*
X0350539Y0140348D01*
X0350481Y0140399D01*
X0350426Y0140453D01*
X0350373Y0140510D01*
X0350324Y0140569D01*
X0350277Y0140631D01*
X0350234Y0140695D01*
X0350195Y0140761D01*
X0350158Y0140829D01*
X0350126Y0140899D01*
X0350096Y0140971D01*
X0350071Y0141044D01*
X0350049Y0141118D01*
X0350032Y0141193D01*
X0350018Y0141269D01*
X0350008Y0141346D01*
X0350002Y0141423D01*
X0350000Y0141500D01*
X0350000Y0281500D02*
X0350002Y0281577D01*
X0350008Y0281654D01*
X0350018Y0281731D01*
X0350032Y0281807D01*
X0350049Y0281882D01*
X0350071Y0281956D01*
X0350096Y0282029D01*
X0350126Y0282101D01*
X0350158Y0282171D01*
X0350195Y0282239D01*
X0350234Y0282305D01*
X0350277Y0282369D01*
X0350324Y0282431D01*
X0350373Y0282490D01*
X0350426Y0282547D01*
X0350481Y0282601D01*
X0350539Y0282652D01*
X0350600Y0282700D01*
X0350663Y0282745D01*
X0350728Y0282786D01*
X0350795Y0282824D01*
X0350864Y0282859D01*
X0350935Y0282889D01*
X0351007Y0282917D01*
X0351081Y0282940D01*
X0351155Y0282960D01*
X0351231Y0282976D01*
X0351307Y0282988D01*
X0351384Y0282996D01*
X0351461Y0283000D01*
X0351539Y0283000D01*
X0351616Y0282996D01*
X0351693Y0282988D01*
X0351769Y0282976D01*
X0351845Y0282960D01*
X0351919Y0282940D01*
X0351993Y0282917D01*
X0352065Y0282889D01*
X0352136Y0282859D01*
X0352205Y0282824D01*
X0352272Y0282786D01*
X0352337Y0282745D01*
X0352400Y0282700D01*
X0352461Y0282652D01*
X0352519Y0282601D01*
X0352574Y0282547D01*
X0352627Y0282490D01*
X0352676Y0282431D01*
X0352723Y0282369D01*
X0352766Y0282305D01*
X0352805Y0282239D01*
X0352842Y0282171D01*
X0352874Y0282101D01*
X0352904Y0282029D01*
X0352929Y0281956D01*
X0352951Y0281882D01*
X0352968Y0281807D01*
X0352982Y0281731D01*
X0352992Y0281654D01*
X0352998Y0281577D01*
X0353000Y0281500D01*
X0352998Y0281423D01*
X0352992Y0281346D01*
X0352982Y0281269D01*
X0352968Y0281193D01*
X0352951Y0281118D01*
X0352929Y0281044D01*
X0352904Y0280971D01*
X0352874Y0280899D01*
X0352842Y0280829D01*
X0352805Y0280761D01*
X0352766Y0280695D01*
X0352723Y0280631D01*
X0352676Y0280569D01*
X0352627Y0280510D01*
X0352574Y0280453D01*
X0352519Y0280399D01*
X0352461Y0280348D01*
X0352400Y0280300D01*
X0352337Y0280255D01*
X0352272Y0280214D01*
X0352205Y0280176D01*
X0352136Y0280141D01*
X0352065Y0280111D01*
X0351993Y0280083D01*
X0351919Y0280060D01*
X0351845Y0280040D01*
X0351769Y0280024D01*
X0351693Y0280012D01*
X0351616Y0280004D01*
X0351539Y0280000D01*
X0351461Y0280000D01*
X0351384Y0280004D01*
X0351307Y0280012D01*
X0351231Y0280024D01*
X0351155Y0280040D01*
X0351081Y0280060D01*
X0351007Y0280083D01*
X0350935Y0280111D01*
X0350864Y0280141D01*
X0350795Y0280176D01*
X0350728Y0280214D01*
X0350663Y0280255D01*
X0350600Y0280300D01*
X0350539Y0280348D01*
X0350481Y0280399D01*
X0350426Y0280453D01*
X0350373Y0280510D01*
X0350324Y0280569D01*
X0350277Y0280631D01*
X0350234Y0280695D01*
X0350195Y0280761D01*
X0350158Y0280829D01*
X0350126Y0280899D01*
X0350096Y0280971D01*
X0350071Y0281044D01*
X0350049Y0281118D01*
X0350032Y0281193D01*
X0350018Y0281269D01*
X0350008Y0281346D01*
X0350002Y0281423D01*
X0350000Y0281500D01*
D12*
X0228400Y0195250D02*
X0228402Y0195299D01*
X0228408Y0195347D01*
X0228418Y0195395D01*
X0228432Y0195442D01*
X0228449Y0195488D01*
X0228470Y0195532D01*
X0228495Y0195574D01*
X0228523Y0195614D01*
X0228555Y0195652D01*
X0228589Y0195687D01*
X0228626Y0195719D01*
X0228665Y0195748D01*
X0228707Y0195774D01*
X0228751Y0195796D01*
X0228796Y0195814D01*
X0228843Y0195829D01*
X0228890Y0195840D01*
X0228939Y0195847D01*
X0228988Y0195850D01*
X0229037Y0195849D01*
X0229085Y0195844D01*
X0229134Y0195835D01*
X0229181Y0195822D01*
X0229227Y0195805D01*
X0229271Y0195785D01*
X0229314Y0195761D01*
X0229355Y0195734D01*
X0229393Y0195703D01*
X0229429Y0195670D01*
X0229461Y0195634D01*
X0229491Y0195595D01*
X0229518Y0195554D01*
X0229541Y0195510D01*
X0229560Y0195465D01*
X0229576Y0195419D01*
X0229588Y0195372D01*
X0229596Y0195323D01*
X0229600Y0195274D01*
X0229600Y0195226D01*
X0229596Y0195177D01*
X0229588Y0195128D01*
X0229576Y0195081D01*
X0229560Y0195035D01*
X0229541Y0194990D01*
X0229518Y0194946D01*
X0229491Y0194905D01*
X0229461Y0194866D01*
X0229429Y0194830D01*
X0229393Y0194797D01*
X0229355Y0194766D01*
X0229314Y0194739D01*
X0229271Y0194715D01*
X0229227Y0194695D01*
X0229181Y0194678D01*
X0229134Y0194665D01*
X0229085Y0194656D01*
X0229037Y0194651D01*
X0228988Y0194650D01*
X0228939Y0194653D01*
X0228890Y0194660D01*
X0228843Y0194671D01*
X0228796Y0194686D01*
X0228751Y0194704D01*
X0228707Y0194726D01*
X0228665Y0194752D01*
X0228626Y0194781D01*
X0228589Y0194813D01*
X0228555Y0194848D01*
X0228523Y0194886D01*
X0228495Y0194926D01*
X0228470Y0194968D01*
X0228449Y0195012D01*
X0228432Y0195058D01*
X0228418Y0195105D01*
X0228408Y0195153D01*
X0228402Y0195201D01*
X0228400Y0195250D01*
X0133400Y0049000D02*
X0133402Y0049049D01*
X0133408Y0049097D01*
X0133418Y0049145D01*
X0133432Y0049192D01*
X0133449Y0049238D01*
X0133470Y0049282D01*
X0133495Y0049324D01*
X0133523Y0049364D01*
X0133555Y0049402D01*
X0133589Y0049437D01*
X0133626Y0049469D01*
X0133665Y0049498D01*
X0133707Y0049524D01*
X0133751Y0049546D01*
X0133796Y0049564D01*
X0133843Y0049579D01*
X0133890Y0049590D01*
X0133939Y0049597D01*
X0133988Y0049600D01*
X0134037Y0049599D01*
X0134085Y0049594D01*
X0134134Y0049585D01*
X0134181Y0049572D01*
X0134227Y0049555D01*
X0134271Y0049535D01*
X0134314Y0049511D01*
X0134355Y0049484D01*
X0134393Y0049453D01*
X0134429Y0049420D01*
X0134461Y0049384D01*
X0134491Y0049345D01*
X0134518Y0049304D01*
X0134541Y0049260D01*
X0134560Y0049215D01*
X0134576Y0049169D01*
X0134588Y0049122D01*
X0134596Y0049073D01*
X0134600Y0049024D01*
X0134600Y0048976D01*
X0134596Y0048927D01*
X0134588Y0048878D01*
X0134576Y0048831D01*
X0134560Y0048785D01*
X0134541Y0048740D01*
X0134518Y0048696D01*
X0134491Y0048655D01*
X0134461Y0048616D01*
X0134429Y0048580D01*
X0134393Y0048547D01*
X0134355Y0048516D01*
X0134314Y0048489D01*
X0134271Y0048465D01*
X0134227Y0048445D01*
X0134181Y0048428D01*
X0134134Y0048415D01*
X0134085Y0048406D01*
X0134037Y0048401D01*
X0133988Y0048400D01*
X0133939Y0048403D01*
X0133890Y0048410D01*
X0133843Y0048421D01*
X0133796Y0048436D01*
X0133751Y0048454D01*
X0133707Y0048476D01*
X0133665Y0048502D01*
X0133626Y0048531D01*
X0133589Y0048563D01*
X0133555Y0048598D01*
X0133523Y0048636D01*
X0133495Y0048676D01*
X0133470Y0048718D01*
X0133449Y0048762D01*
X0133432Y0048808D01*
X0133418Y0048855D01*
X0133408Y0048903D01*
X0133402Y0048951D01*
X0133400Y0049000D01*
D13*
X0140500Y0114000D02*
X0140502Y0114063D01*
X0140508Y0114125D01*
X0140518Y0114187D01*
X0140531Y0114249D01*
X0140549Y0114309D01*
X0140570Y0114368D01*
X0140595Y0114426D01*
X0140624Y0114482D01*
X0140656Y0114536D01*
X0140691Y0114588D01*
X0140729Y0114637D01*
X0140771Y0114685D01*
X0140815Y0114729D01*
X0140863Y0114771D01*
X0140912Y0114809D01*
X0140964Y0114844D01*
X0141018Y0114876D01*
X0141074Y0114905D01*
X0141132Y0114930D01*
X0141191Y0114951D01*
X0141251Y0114969D01*
X0141313Y0114982D01*
X0141375Y0114992D01*
X0141437Y0114998D01*
X0141500Y0115000D01*
X0141563Y0114998D01*
X0141625Y0114992D01*
X0141687Y0114982D01*
X0141749Y0114969D01*
X0141809Y0114951D01*
X0141868Y0114930D01*
X0141926Y0114905D01*
X0141982Y0114876D01*
X0142036Y0114844D01*
X0142088Y0114809D01*
X0142137Y0114771D01*
X0142185Y0114729D01*
X0142229Y0114685D01*
X0142271Y0114637D01*
X0142309Y0114588D01*
X0142344Y0114536D01*
X0142376Y0114482D01*
X0142405Y0114426D01*
X0142430Y0114368D01*
X0142451Y0114309D01*
X0142469Y0114249D01*
X0142482Y0114187D01*
X0142492Y0114125D01*
X0142498Y0114063D01*
X0142500Y0114000D01*
X0142498Y0113937D01*
X0142492Y0113875D01*
X0142482Y0113813D01*
X0142469Y0113751D01*
X0142451Y0113691D01*
X0142430Y0113632D01*
X0142405Y0113574D01*
X0142376Y0113518D01*
X0142344Y0113464D01*
X0142309Y0113412D01*
X0142271Y0113363D01*
X0142229Y0113315D01*
X0142185Y0113271D01*
X0142137Y0113229D01*
X0142088Y0113191D01*
X0142036Y0113156D01*
X0141982Y0113124D01*
X0141926Y0113095D01*
X0141868Y0113070D01*
X0141809Y0113049D01*
X0141749Y0113031D01*
X0141687Y0113018D01*
X0141625Y0113008D01*
X0141563Y0113002D01*
X0141500Y0113000D01*
X0141437Y0113002D01*
X0141375Y0113008D01*
X0141313Y0113018D01*
X0141251Y0113031D01*
X0141191Y0113049D01*
X0141132Y0113070D01*
X0141074Y0113095D01*
X0141018Y0113124D01*
X0140964Y0113156D01*
X0140912Y0113191D01*
X0140863Y0113229D01*
X0140815Y0113271D01*
X0140771Y0113315D01*
X0140729Y0113363D01*
X0140691Y0113412D01*
X0140656Y0113464D01*
X0140624Y0113518D01*
X0140595Y0113574D01*
X0140570Y0113632D01*
X0140549Y0113691D01*
X0140531Y0113751D01*
X0140518Y0113813D01*
X0140508Y0113875D01*
X0140502Y0113937D01*
X0140500Y0114000D01*
X0100500Y0114000D02*
X0100502Y0114063D01*
X0100508Y0114125D01*
X0100518Y0114187D01*
X0100531Y0114249D01*
X0100549Y0114309D01*
X0100570Y0114368D01*
X0100595Y0114426D01*
X0100624Y0114482D01*
X0100656Y0114536D01*
X0100691Y0114588D01*
X0100729Y0114637D01*
X0100771Y0114685D01*
X0100815Y0114729D01*
X0100863Y0114771D01*
X0100912Y0114809D01*
X0100964Y0114844D01*
X0101018Y0114876D01*
X0101074Y0114905D01*
X0101132Y0114930D01*
X0101191Y0114951D01*
X0101251Y0114969D01*
X0101313Y0114982D01*
X0101375Y0114992D01*
X0101437Y0114998D01*
X0101500Y0115000D01*
X0101563Y0114998D01*
X0101625Y0114992D01*
X0101687Y0114982D01*
X0101749Y0114969D01*
X0101809Y0114951D01*
X0101868Y0114930D01*
X0101926Y0114905D01*
X0101982Y0114876D01*
X0102036Y0114844D01*
X0102088Y0114809D01*
X0102137Y0114771D01*
X0102185Y0114729D01*
X0102229Y0114685D01*
X0102271Y0114637D01*
X0102309Y0114588D01*
X0102344Y0114536D01*
X0102376Y0114482D01*
X0102405Y0114426D01*
X0102430Y0114368D01*
X0102451Y0114309D01*
X0102469Y0114249D01*
X0102482Y0114187D01*
X0102492Y0114125D01*
X0102498Y0114063D01*
X0102500Y0114000D01*
X0102498Y0113937D01*
X0102492Y0113875D01*
X0102482Y0113813D01*
X0102469Y0113751D01*
X0102451Y0113691D01*
X0102430Y0113632D01*
X0102405Y0113574D01*
X0102376Y0113518D01*
X0102344Y0113464D01*
X0102309Y0113412D01*
X0102271Y0113363D01*
X0102229Y0113315D01*
X0102185Y0113271D01*
X0102137Y0113229D01*
X0102088Y0113191D01*
X0102036Y0113156D01*
X0101982Y0113124D01*
X0101926Y0113095D01*
X0101868Y0113070D01*
X0101809Y0113049D01*
X0101749Y0113031D01*
X0101687Y0113018D01*
X0101625Y0113008D01*
X0101563Y0113002D01*
X0101500Y0113000D01*
X0101437Y0113002D01*
X0101375Y0113008D01*
X0101313Y0113018D01*
X0101251Y0113031D01*
X0101191Y0113049D01*
X0101132Y0113070D01*
X0101074Y0113095D01*
X0101018Y0113124D01*
X0100964Y0113156D01*
X0100912Y0113191D01*
X0100863Y0113229D01*
X0100815Y0113271D01*
X0100771Y0113315D01*
X0100729Y0113363D01*
X0100691Y0113412D01*
X0100656Y0113464D01*
X0100624Y0113518D01*
X0100595Y0113574D01*
X0100570Y0113632D01*
X0100549Y0113691D01*
X0100531Y0113751D01*
X0100518Y0113813D01*
X0100508Y0113875D01*
X0100502Y0113937D01*
X0100500Y0114000D01*
M02*
