G75*
%MOIN*%
%OFA0B0*%
%FSLAX25Y25*%
%IPPOS*%
%LPD*%
%AMOC8*
5,1,8,0,0,1.08239X$1,22.5*
%
%ADD10R,0.05118X0.05906*%
%ADD11R,0.05906X0.05118*%
%ADD12R,0.06000X0.02500*%
%ADD13R,0.02500X0.06000*%
%ADD14R,0.08000X0.09000*%
D10*
X0107760Y0121500D03*
X0115240Y0121500D03*
X0147760Y0121500D03*
X0155240Y0121500D03*
X0227760Y0211500D03*
X0235240Y0211500D03*
X0235240Y0331500D03*
X0227760Y0331500D03*
X0297760Y0331500D03*
X0305240Y0331500D03*
D11*
X0121500Y0055240D03*
X0121500Y0047760D03*
D12*
X0221000Y0166500D03*
X0221000Y0171500D03*
X0221000Y0176500D03*
X0221000Y0181500D03*
X0221000Y0186500D03*
X0221000Y0191500D03*
X0221000Y0196500D03*
X0242000Y0196500D03*
X0242000Y0191500D03*
X0242000Y0186500D03*
X0242000Y0181500D03*
X0242000Y0176500D03*
X0242000Y0171500D03*
X0242000Y0166500D03*
D13*
X0169000Y0062000D03*
X0164000Y0062000D03*
X0159000Y0062000D03*
X0154000Y0062000D03*
X0149000Y0062000D03*
X0144000Y0062000D03*
X0139000Y0062000D03*
X0134000Y0062000D03*
X0134000Y0041000D03*
X0139000Y0041000D03*
X0144000Y0041000D03*
X0149000Y0041000D03*
X0154000Y0041000D03*
X0159000Y0041000D03*
X0164000Y0041000D03*
X0169000Y0041000D03*
D14*
X0104000Y0081500D03*
X0119000Y0081500D03*
X0119000Y0101500D03*
X0104000Y0101500D03*
X0144000Y0101500D03*
X0159000Y0101500D03*
X0159000Y0081500D03*
X0144000Y0081500D03*
M02*
