G75*
%MOIN*%
%OFA0B0*%
%FSLAX25Y25*%
%IPPOS*%
%LPD*%
%AMOC8*
5,1,8,0,0,1.08239X$1,22.5*
%
%ADD10C,0.01000*%
%ADD11C,0.00000*%
%ADD12C,0.04724*%
D10*
X0001500Y0001500D02*
X0001500Y0395201D01*
X0395201Y0395201D01*
X0395201Y0001500D01*
X0001500Y0001500D01*
D11*
X0335000Y0039000D02*
X0335002Y0039161D01*
X0335008Y0039321D01*
X0335018Y0039482D01*
X0335032Y0039642D01*
X0335050Y0039802D01*
X0335071Y0039961D01*
X0335097Y0040120D01*
X0335127Y0040278D01*
X0335160Y0040435D01*
X0335198Y0040592D01*
X0335239Y0040747D01*
X0335284Y0040901D01*
X0335333Y0041054D01*
X0335386Y0041206D01*
X0335442Y0041357D01*
X0335503Y0041506D01*
X0335566Y0041654D01*
X0335634Y0041800D01*
X0335705Y0041944D01*
X0335779Y0042086D01*
X0335857Y0042227D01*
X0335939Y0042365D01*
X0336024Y0042502D01*
X0336112Y0042636D01*
X0336204Y0042768D01*
X0336299Y0042898D01*
X0336397Y0043026D01*
X0336498Y0043151D01*
X0336602Y0043273D01*
X0336709Y0043393D01*
X0336819Y0043510D01*
X0336932Y0043625D01*
X0337048Y0043736D01*
X0337167Y0043845D01*
X0337288Y0043950D01*
X0337412Y0044053D01*
X0337538Y0044153D01*
X0337666Y0044249D01*
X0337797Y0044342D01*
X0337931Y0044432D01*
X0338066Y0044519D01*
X0338204Y0044602D01*
X0338343Y0044682D01*
X0338485Y0044758D01*
X0338628Y0044831D01*
X0338773Y0044900D01*
X0338920Y0044966D01*
X0339068Y0045028D01*
X0339218Y0045086D01*
X0339369Y0045141D01*
X0339522Y0045192D01*
X0339676Y0045239D01*
X0339831Y0045282D01*
X0339987Y0045321D01*
X0340143Y0045357D01*
X0340301Y0045388D01*
X0340459Y0045416D01*
X0340618Y0045440D01*
X0340778Y0045460D01*
X0340938Y0045476D01*
X0341098Y0045488D01*
X0341259Y0045496D01*
X0341420Y0045500D01*
X0341580Y0045500D01*
X0341741Y0045496D01*
X0341902Y0045488D01*
X0342062Y0045476D01*
X0342222Y0045460D01*
X0342382Y0045440D01*
X0342541Y0045416D01*
X0342699Y0045388D01*
X0342857Y0045357D01*
X0343013Y0045321D01*
X0343169Y0045282D01*
X0343324Y0045239D01*
X0343478Y0045192D01*
X0343631Y0045141D01*
X0343782Y0045086D01*
X0343932Y0045028D01*
X0344080Y0044966D01*
X0344227Y0044900D01*
X0344372Y0044831D01*
X0344515Y0044758D01*
X0344657Y0044682D01*
X0344796Y0044602D01*
X0344934Y0044519D01*
X0345069Y0044432D01*
X0345203Y0044342D01*
X0345334Y0044249D01*
X0345462Y0044153D01*
X0345588Y0044053D01*
X0345712Y0043950D01*
X0345833Y0043845D01*
X0345952Y0043736D01*
X0346068Y0043625D01*
X0346181Y0043510D01*
X0346291Y0043393D01*
X0346398Y0043273D01*
X0346502Y0043151D01*
X0346603Y0043026D01*
X0346701Y0042898D01*
X0346796Y0042768D01*
X0346888Y0042636D01*
X0346976Y0042502D01*
X0347061Y0042365D01*
X0347143Y0042227D01*
X0347221Y0042086D01*
X0347295Y0041944D01*
X0347366Y0041800D01*
X0347434Y0041654D01*
X0347497Y0041506D01*
X0347558Y0041357D01*
X0347614Y0041206D01*
X0347667Y0041054D01*
X0347716Y0040901D01*
X0347761Y0040747D01*
X0347802Y0040592D01*
X0347840Y0040435D01*
X0347873Y0040278D01*
X0347903Y0040120D01*
X0347929Y0039961D01*
X0347950Y0039802D01*
X0347968Y0039642D01*
X0347982Y0039482D01*
X0347992Y0039321D01*
X0347998Y0039161D01*
X0348000Y0039000D01*
X0347998Y0038839D01*
X0347992Y0038679D01*
X0347982Y0038518D01*
X0347968Y0038358D01*
X0347950Y0038198D01*
X0347929Y0038039D01*
X0347903Y0037880D01*
X0347873Y0037722D01*
X0347840Y0037565D01*
X0347802Y0037408D01*
X0347761Y0037253D01*
X0347716Y0037099D01*
X0347667Y0036946D01*
X0347614Y0036794D01*
X0347558Y0036643D01*
X0347497Y0036494D01*
X0347434Y0036346D01*
X0347366Y0036200D01*
X0347295Y0036056D01*
X0347221Y0035914D01*
X0347143Y0035773D01*
X0347061Y0035635D01*
X0346976Y0035498D01*
X0346888Y0035364D01*
X0346796Y0035232D01*
X0346701Y0035102D01*
X0346603Y0034974D01*
X0346502Y0034849D01*
X0346398Y0034727D01*
X0346291Y0034607D01*
X0346181Y0034490D01*
X0346068Y0034375D01*
X0345952Y0034264D01*
X0345833Y0034155D01*
X0345712Y0034050D01*
X0345588Y0033947D01*
X0345462Y0033847D01*
X0345334Y0033751D01*
X0345203Y0033658D01*
X0345069Y0033568D01*
X0344934Y0033481D01*
X0344796Y0033398D01*
X0344657Y0033318D01*
X0344515Y0033242D01*
X0344372Y0033169D01*
X0344227Y0033100D01*
X0344080Y0033034D01*
X0343932Y0032972D01*
X0343782Y0032914D01*
X0343631Y0032859D01*
X0343478Y0032808D01*
X0343324Y0032761D01*
X0343169Y0032718D01*
X0343013Y0032679D01*
X0342857Y0032643D01*
X0342699Y0032612D01*
X0342541Y0032584D01*
X0342382Y0032560D01*
X0342222Y0032540D01*
X0342062Y0032524D01*
X0341902Y0032512D01*
X0341741Y0032504D01*
X0341580Y0032500D01*
X0341420Y0032500D01*
X0341259Y0032504D01*
X0341098Y0032512D01*
X0340938Y0032524D01*
X0340778Y0032540D01*
X0340618Y0032560D01*
X0340459Y0032584D01*
X0340301Y0032612D01*
X0340143Y0032643D01*
X0339987Y0032679D01*
X0339831Y0032718D01*
X0339676Y0032761D01*
X0339522Y0032808D01*
X0339369Y0032859D01*
X0339218Y0032914D01*
X0339068Y0032972D01*
X0338920Y0033034D01*
X0338773Y0033100D01*
X0338628Y0033169D01*
X0338485Y0033242D01*
X0338343Y0033318D01*
X0338204Y0033398D01*
X0338066Y0033481D01*
X0337931Y0033568D01*
X0337797Y0033658D01*
X0337666Y0033751D01*
X0337538Y0033847D01*
X0337412Y0033947D01*
X0337288Y0034050D01*
X0337167Y0034155D01*
X0337048Y0034264D01*
X0336932Y0034375D01*
X0336819Y0034490D01*
X0336709Y0034607D01*
X0336602Y0034727D01*
X0336498Y0034849D01*
X0336397Y0034974D01*
X0336299Y0035102D01*
X0336204Y0035232D01*
X0336112Y0035364D01*
X0336024Y0035498D01*
X0335939Y0035635D01*
X0335857Y0035773D01*
X0335779Y0035914D01*
X0335705Y0036056D01*
X0335634Y0036200D01*
X0335566Y0036346D01*
X0335503Y0036494D01*
X0335442Y0036643D01*
X0335386Y0036794D01*
X0335333Y0036946D01*
X0335284Y0037099D01*
X0335239Y0037253D01*
X0335198Y0037408D01*
X0335160Y0037565D01*
X0335127Y0037722D01*
X0335097Y0037880D01*
X0335071Y0038039D01*
X0335050Y0038198D01*
X0335032Y0038358D01*
X0335018Y0038518D01*
X0335008Y0038679D01*
X0335002Y0038839D01*
X0335000Y0039000D01*
X0335000Y0084000D02*
X0335002Y0084161D01*
X0335008Y0084321D01*
X0335018Y0084482D01*
X0335032Y0084642D01*
X0335050Y0084802D01*
X0335071Y0084961D01*
X0335097Y0085120D01*
X0335127Y0085278D01*
X0335160Y0085435D01*
X0335198Y0085592D01*
X0335239Y0085747D01*
X0335284Y0085901D01*
X0335333Y0086054D01*
X0335386Y0086206D01*
X0335442Y0086357D01*
X0335503Y0086506D01*
X0335566Y0086654D01*
X0335634Y0086800D01*
X0335705Y0086944D01*
X0335779Y0087086D01*
X0335857Y0087227D01*
X0335939Y0087365D01*
X0336024Y0087502D01*
X0336112Y0087636D01*
X0336204Y0087768D01*
X0336299Y0087898D01*
X0336397Y0088026D01*
X0336498Y0088151D01*
X0336602Y0088273D01*
X0336709Y0088393D01*
X0336819Y0088510D01*
X0336932Y0088625D01*
X0337048Y0088736D01*
X0337167Y0088845D01*
X0337288Y0088950D01*
X0337412Y0089053D01*
X0337538Y0089153D01*
X0337666Y0089249D01*
X0337797Y0089342D01*
X0337931Y0089432D01*
X0338066Y0089519D01*
X0338204Y0089602D01*
X0338343Y0089682D01*
X0338485Y0089758D01*
X0338628Y0089831D01*
X0338773Y0089900D01*
X0338920Y0089966D01*
X0339068Y0090028D01*
X0339218Y0090086D01*
X0339369Y0090141D01*
X0339522Y0090192D01*
X0339676Y0090239D01*
X0339831Y0090282D01*
X0339987Y0090321D01*
X0340143Y0090357D01*
X0340301Y0090388D01*
X0340459Y0090416D01*
X0340618Y0090440D01*
X0340778Y0090460D01*
X0340938Y0090476D01*
X0341098Y0090488D01*
X0341259Y0090496D01*
X0341420Y0090500D01*
X0341580Y0090500D01*
X0341741Y0090496D01*
X0341902Y0090488D01*
X0342062Y0090476D01*
X0342222Y0090460D01*
X0342382Y0090440D01*
X0342541Y0090416D01*
X0342699Y0090388D01*
X0342857Y0090357D01*
X0343013Y0090321D01*
X0343169Y0090282D01*
X0343324Y0090239D01*
X0343478Y0090192D01*
X0343631Y0090141D01*
X0343782Y0090086D01*
X0343932Y0090028D01*
X0344080Y0089966D01*
X0344227Y0089900D01*
X0344372Y0089831D01*
X0344515Y0089758D01*
X0344657Y0089682D01*
X0344796Y0089602D01*
X0344934Y0089519D01*
X0345069Y0089432D01*
X0345203Y0089342D01*
X0345334Y0089249D01*
X0345462Y0089153D01*
X0345588Y0089053D01*
X0345712Y0088950D01*
X0345833Y0088845D01*
X0345952Y0088736D01*
X0346068Y0088625D01*
X0346181Y0088510D01*
X0346291Y0088393D01*
X0346398Y0088273D01*
X0346502Y0088151D01*
X0346603Y0088026D01*
X0346701Y0087898D01*
X0346796Y0087768D01*
X0346888Y0087636D01*
X0346976Y0087502D01*
X0347061Y0087365D01*
X0347143Y0087227D01*
X0347221Y0087086D01*
X0347295Y0086944D01*
X0347366Y0086800D01*
X0347434Y0086654D01*
X0347497Y0086506D01*
X0347558Y0086357D01*
X0347614Y0086206D01*
X0347667Y0086054D01*
X0347716Y0085901D01*
X0347761Y0085747D01*
X0347802Y0085592D01*
X0347840Y0085435D01*
X0347873Y0085278D01*
X0347903Y0085120D01*
X0347929Y0084961D01*
X0347950Y0084802D01*
X0347968Y0084642D01*
X0347982Y0084482D01*
X0347992Y0084321D01*
X0347998Y0084161D01*
X0348000Y0084000D01*
X0347998Y0083839D01*
X0347992Y0083679D01*
X0347982Y0083518D01*
X0347968Y0083358D01*
X0347950Y0083198D01*
X0347929Y0083039D01*
X0347903Y0082880D01*
X0347873Y0082722D01*
X0347840Y0082565D01*
X0347802Y0082408D01*
X0347761Y0082253D01*
X0347716Y0082099D01*
X0347667Y0081946D01*
X0347614Y0081794D01*
X0347558Y0081643D01*
X0347497Y0081494D01*
X0347434Y0081346D01*
X0347366Y0081200D01*
X0347295Y0081056D01*
X0347221Y0080914D01*
X0347143Y0080773D01*
X0347061Y0080635D01*
X0346976Y0080498D01*
X0346888Y0080364D01*
X0346796Y0080232D01*
X0346701Y0080102D01*
X0346603Y0079974D01*
X0346502Y0079849D01*
X0346398Y0079727D01*
X0346291Y0079607D01*
X0346181Y0079490D01*
X0346068Y0079375D01*
X0345952Y0079264D01*
X0345833Y0079155D01*
X0345712Y0079050D01*
X0345588Y0078947D01*
X0345462Y0078847D01*
X0345334Y0078751D01*
X0345203Y0078658D01*
X0345069Y0078568D01*
X0344934Y0078481D01*
X0344796Y0078398D01*
X0344657Y0078318D01*
X0344515Y0078242D01*
X0344372Y0078169D01*
X0344227Y0078100D01*
X0344080Y0078034D01*
X0343932Y0077972D01*
X0343782Y0077914D01*
X0343631Y0077859D01*
X0343478Y0077808D01*
X0343324Y0077761D01*
X0343169Y0077718D01*
X0343013Y0077679D01*
X0342857Y0077643D01*
X0342699Y0077612D01*
X0342541Y0077584D01*
X0342382Y0077560D01*
X0342222Y0077540D01*
X0342062Y0077524D01*
X0341902Y0077512D01*
X0341741Y0077504D01*
X0341580Y0077500D01*
X0341420Y0077500D01*
X0341259Y0077504D01*
X0341098Y0077512D01*
X0340938Y0077524D01*
X0340778Y0077540D01*
X0340618Y0077560D01*
X0340459Y0077584D01*
X0340301Y0077612D01*
X0340143Y0077643D01*
X0339987Y0077679D01*
X0339831Y0077718D01*
X0339676Y0077761D01*
X0339522Y0077808D01*
X0339369Y0077859D01*
X0339218Y0077914D01*
X0339068Y0077972D01*
X0338920Y0078034D01*
X0338773Y0078100D01*
X0338628Y0078169D01*
X0338485Y0078242D01*
X0338343Y0078318D01*
X0338204Y0078398D01*
X0338066Y0078481D01*
X0337931Y0078568D01*
X0337797Y0078658D01*
X0337666Y0078751D01*
X0337538Y0078847D01*
X0337412Y0078947D01*
X0337288Y0079050D01*
X0337167Y0079155D01*
X0337048Y0079264D01*
X0336932Y0079375D01*
X0336819Y0079490D01*
X0336709Y0079607D01*
X0336602Y0079727D01*
X0336498Y0079849D01*
X0336397Y0079974D01*
X0336299Y0080102D01*
X0336204Y0080232D01*
X0336112Y0080364D01*
X0336024Y0080498D01*
X0335939Y0080635D01*
X0335857Y0080773D01*
X0335779Y0080914D01*
X0335705Y0081056D01*
X0335634Y0081200D01*
X0335566Y0081346D01*
X0335503Y0081494D01*
X0335442Y0081643D01*
X0335386Y0081794D01*
X0335333Y0081946D01*
X0335284Y0082099D01*
X0335239Y0082253D01*
X0335198Y0082408D01*
X0335160Y0082565D01*
X0335127Y0082722D01*
X0335097Y0082880D01*
X0335071Y0083039D01*
X0335050Y0083198D01*
X0335032Y0083358D01*
X0335018Y0083518D01*
X0335008Y0083679D01*
X0335002Y0083839D01*
X0335000Y0084000D01*
X0379669Y0205000D02*
X0379671Y0205131D01*
X0379677Y0205263D01*
X0379687Y0205394D01*
X0379701Y0205525D01*
X0379719Y0205655D01*
X0379741Y0205784D01*
X0379766Y0205913D01*
X0379796Y0206041D01*
X0379830Y0206168D01*
X0379867Y0206295D01*
X0379908Y0206419D01*
X0379953Y0206543D01*
X0380002Y0206665D01*
X0380054Y0206786D01*
X0380110Y0206904D01*
X0380170Y0207022D01*
X0380233Y0207137D01*
X0380300Y0207250D01*
X0380370Y0207362D01*
X0380443Y0207471D01*
X0380519Y0207577D01*
X0380599Y0207682D01*
X0380682Y0207784D01*
X0380768Y0207883D01*
X0380857Y0207980D01*
X0380949Y0208074D01*
X0381044Y0208165D01*
X0381141Y0208254D01*
X0381241Y0208339D01*
X0381344Y0208421D01*
X0381449Y0208500D01*
X0381556Y0208576D01*
X0381666Y0208648D01*
X0381778Y0208717D01*
X0381892Y0208783D01*
X0382007Y0208845D01*
X0382125Y0208904D01*
X0382244Y0208959D01*
X0382365Y0209011D01*
X0382488Y0209058D01*
X0382612Y0209102D01*
X0382737Y0209143D01*
X0382863Y0209179D01*
X0382991Y0209212D01*
X0383119Y0209240D01*
X0383248Y0209265D01*
X0383378Y0209286D01*
X0383508Y0209303D01*
X0383639Y0209316D01*
X0383770Y0209325D01*
X0383901Y0209330D01*
X0384033Y0209331D01*
X0384164Y0209328D01*
X0384296Y0209321D01*
X0384427Y0209310D01*
X0384557Y0209295D01*
X0384687Y0209276D01*
X0384817Y0209253D01*
X0384945Y0209227D01*
X0385073Y0209196D01*
X0385200Y0209161D01*
X0385326Y0209123D01*
X0385450Y0209081D01*
X0385574Y0209035D01*
X0385695Y0208985D01*
X0385815Y0208932D01*
X0385934Y0208875D01*
X0386051Y0208815D01*
X0386165Y0208751D01*
X0386278Y0208683D01*
X0386389Y0208612D01*
X0386498Y0208538D01*
X0386604Y0208461D01*
X0386708Y0208380D01*
X0386809Y0208297D01*
X0386908Y0208210D01*
X0387004Y0208120D01*
X0387097Y0208027D01*
X0387188Y0207932D01*
X0387275Y0207834D01*
X0387360Y0207733D01*
X0387441Y0207630D01*
X0387519Y0207524D01*
X0387594Y0207416D01*
X0387666Y0207306D01*
X0387734Y0207194D01*
X0387799Y0207080D01*
X0387860Y0206963D01*
X0387918Y0206845D01*
X0387972Y0206725D01*
X0388023Y0206604D01*
X0388070Y0206481D01*
X0388113Y0206357D01*
X0388152Y0206232D01*
X0388188Y0206105D01*
X0388219Y0205977D01*
X0388247Y0205849D01*
X0388271Y0205720D01*
X0388291Y0205590D01*
X0388307Y0205459D01*
X0388319Y0205328D01*
X0388327Y0205197D01*
X0388331Y0205066D01*
X0388331Y0204934D01*
X0388327Y0204803D01*
X0388319Y0204672D01*
X0388307Y0204541D01*
X0388291Y0204410D01*
X0388271Y0204280D01*
X0388247Y0204151D01*
X0388219Y0204023D01*
X0388188Y0203895D01*
X0388152Y0203768D01*
X0388113Y0203643D01*
X0388070Y0203519D01*
X0388023Y0203396D01*
X0387972Y0203275D01*
X0387918Y0203155D01*
X0387860Y0203037D01*
X0387799Y0202920D01*
X0387734Y0202806D01*
X0387666Y0202694D01*
X0387594Y0202584D01*
X0387519Y0202476D01*
X0387441Y0202370D01*
X0387360Y0202267D01*
X0387275Y0202166D01*
X0387188Y0202068D01*
X0387097Y0201973D01*
X0387004Y0201880D01*
X0386908Y0201790D01*
X0386809Y0201703D01*
X0386708Y0201620D01*
X0386604Y0201539D01*
X0386498Y0201462D01*
X0386389Y0201388D01*
X0386278Y0201317D01*
X0386166Y0201249D01*
X0386051Y0201185D01*
X0385934Y0201125D01*
X0385815Y0201068D01*
X0385695Y0201015D01*
X0385574Y0200965D01*
X0385450Y0200919D01*
X0385326Y0200877D01*
X0385200Y0200839D01*
X0385073Y0200804D01*
X0384945Y0200773D01*
X0384817Y0200747D01*
X0384687Y0200724D01*
X0384557Y0200705D01*
X0384427Y0200690D01*
X0384296Y0200679D01*
X0384164Y0200672D01*
X0384033Y0200669D01*
X0383901Y0200670D01*
X0383770Y0200675D01*
X0383639Y0200684D01*
X0383508Y0200697D01*
X0383378Y0200714D01*
X0383248Y0200735D01*
X0383119Y0200760D01*
X0382991Y0200788D01*
X0382863Y0200821D01*
X0382737Y0200857D01*
X0382612Y0200898D01*
X0382488Y0200942D01*
X0382365Y0200989D01*
X0382244Y0201041D01*
X0382125Y0201096D01*
X0382007Y0201155D01*
X0381892Y0201217D01*
X0381778Y0201283D01*
X0381666Y0201352D01*
X0381556Y0201424D01*
X0381449Y0201500D01*
X0381344Y0201579D01*
X0381241Y0201661D01*
X0381141Y0201746D01*
X0381044Y0201835D01*
X0380949Y0201926D01*
X0380857Y0202020D01*
X0380768Y0202117D01*
X0380682Y0202216D01*
X0380599Y0202318D01*
X0380519Y0202423D01*
X0380443Y0202529D01*
X0380370Y0202638D01*
X0380300Y0202750D01*
X0380233Y0202863D01*
X0380170Y0202978D01*
X0380110Y0203096D01*
X0380054Y0203214D01*
X0380002Y0203335D01*
X0379953Y0203457D01*
X0379908Y0203581D01*
X0379867Y0203705D01*
X0379830Y0203832D01*
X0379796Y0203959D01*
X0379766Y0204087D01*
X0379741Y0204216D01*
X0379719Y0204345D01*
X0379701Y0204475D01*
X0379687Y0204606D01*
X0379677Y0204737D01*
X0379671Y0204869D01*
X0379669Y0205000D01*
X0379669Y0238000D02*
X0379671Y0238131D01*
X0379677Y0238263D01*
X0379687Y0238394D01*
X0379701Y0238525D01*
X0379719Y0238655D01*
X0379741Y0238784D01*
X0379766Y0238913D01*
X0379796Y0239041D01*
X0379830Y0239168D01*
X0379867Y0239295D01*
X0379908Y0239419D01*
X0379953Y0239543D01*
X0380002Y0239665D01*
X0380054Y0239786D01*
X0380110Y0239904D01*
X0380170Y0240022D01*
X0380233Y0240137D01*
X0380300Y0240250D01*
X0380370Y0240362D01*
X0380443Y0240471D01*
X0380519Y0240577D01*
X0380599Y0240682D01*
X0380682Y0240784D01*
X0380768Y0240883D01*
X0380857Y0240980D01*
X0380949Y0241074D01*
X0381044Y0241165D01*
X0381141Y0241254D01*
X0381241Y0241339D01*
X0381344Y0241421D01*
X0381449Y0241500D01*
X0381556Y0241576D01*
X0381666Y0241648D01*
X0381778Y0241717D01*
X0381892Y0241783D01*
X0382007Y0241845D01*
X0382125Y0241904D01*
X0382244Y0241959D01*
X0382365Y0242011D01*
X0382488Y0242058D01*
X0382612Y0242102D01*
X0382737Y0242143D01*
X0382863Y0242179D01*
X0382991Y0242212D01*
X0383119Y0242240D01*
X0383248Y0242265D01*
X0383378Y0242286D01*
X0383508Y0242303D01*
X0383639Y0242316D01*
X0383770Y0242325D01*
X0383901Y0242330D01*
X0384033Y0242331D01*
X0384164Y0242328D01*
X0384296Y0242321D01*
X0384427Y0242310D01*
X0384557Y0242295D01*
X0384687Y0242276D01*
X0384817Y0242253D01*
X0384945Y0242227D01*
X0385073Y0242196D01*
X0385200Y0242161D01*
X0385326Y0242123D01*
X0385450Y0242081D01*
X0385574Y0242035D01*
X0385695Y0241985D01*
X0385815Y0241932D01*
X0385934Y0241875D01*
X0386051Y0241815D01*
X0386165Y0241751D01*
X0386278Y0241683D01*
X0386389Y0241612D01*
X0386498Y0241538D01*
X0386604Y0241461D01*
X0386708Y0241380D01*
X0386809Y0241297D01*
X0386908Y0241210D01*
X0387004Y0241120D01*
X0387097Y0241027D01*
X0387188Y0240932D01*
X0387275Y0240834D01*
X0387360Y0240733D01*
X0387441Y0240630D01*
X0387519Y0240524D01*
X0387594Y0240416D01*
X0387666Y0240306D01*
X0387734Y0240194D01*
X0387799Y0240080D01*
X0387860Y0239963D01*
X0387918Y0239845D01*
X0387972Y0239725D01*
X0388023Y0239604D01*
X0388070Y0239481D01*
X0388113Y0239357D01*
X0388152Y0239232D01*
X0388188Y0239105D01*
X0388219Y0238977D01*
X0388247Y0238849D01*
X0388271Y0238720D01*
X0388291Y0238590D01*
X0388307Y0238459D01*
X0388319Y0238328D01*
X0388327Y0238197D01*
X0388331Y0238066D01*
X0388331Y0237934D01*
X0388327Y0237803D01*
X0388319Y0237672D01*
X0388307Y0237541D01*
X0388291Y0237410D01*
X0388271Y0237280D01*
X0388247Y0237151D01*
X0388219Y0237023D01*
X0388188Y0236895D01*
X0388152Y0236768D01*
X0388113Y0236643D01*
X0388070Y0236519D01*
X0388023Y0236396D01*
X0387972Y0236275D01*
X0387918Y0236155D01*
X0387860Y0236037D01*
X0387799Y0235920D01*
X0387734Y0235806D01*
X0387666Y0235694D01*
X0387594Y0235584D01*
X0387519Y0235476D01*
X0387441Y0235370D01*
X0387360Y0235267D01*
X0387275Y0235166D01*
X0387188Y0235068D01*
X0387097Y0234973D01*
X0387004Y0234880D01*
X0386908Y0234790D01*
X0386809Y0234703D01*
X0386708Y0234620D01*
X0386604Y0234539D01*
X0386498Y0234462D01*
X0386389Y0234388D01*
X0386278Y0234317D01*
X0386166Y0234249D01*
X0386051Y0234185D01*
X0385934Y0234125D01*
X0385815Y0234068D01*
X0385695Y0234015D01*
X0385574Y0233965D01*
X0385450Y0233919D01*
X0385326Y0233877D01*
X0385200Y0233839D01*
X0385073Y0233804D01*
X0384945Y0233773D01*
X0384817Y0233747D01*
X0384687Y0233724D01*
X0384557Y0233705D01*
X0384427Y0233690D01*
X0384296Y0233679D01*
X0384164Y0233672D01*
X0384033Y0233669D01*
X0383901Y0233670D01*
X0383770Y0233675D01*
X0383639Y0233684D01*
X0383508Y0233697D01*
X0383378Y0233714D01*
X0383248Y0233735D01*
X0383119Y0233760D01*
X0382991Y0233788D01*
X0382863Y0233821D01*
X0382737Y0233857D01*
X0382612Y0233898D01*
X0382488Y0233942D01*
X0382365Y0233989D01*
X0382244Y0234041D01*
X0382125Y0234096D01*
X0382007Y0234155D01*
X0381892Y0234217D01*
X0381778Y0234283D01*
X0381666Y0234352D01*
X0381556Y0234424D01*
X0381449Y0234500D01*
X0381344Y0234579D01*
X0381241Y0234661D01*
X0381141Y0234746D01*
X0381044Y0234835D01*
X0380949Y0234926D01*
X0380857Y0235020D01*
X0380768Y0235117D01*
X0380682Y0235216D01*
X0380599Y0235318D01*
X0380519Y0235423D01*
X0380443Y0235529D01*
X0380370Y0235638D01*
X0380300Y0235750D01*
X0380233Y0235863D01*
X0380170Y0235978D01*
X0380110Y0236096D01*
X0380054Y0236214D01*
X0380002Y0236335D01*
X0379953Y0236457D01*
X0379908Y0236581D01*
X0379867Y0236705D01*
X0379830Y0236832D01*
X0379796Y0236959D01*
X0379766Y0237087D01*
X0379741Y0237216D01*
X0379719Y0237345D01*
X0379701Y0237475D01*
X0379687Y0237606D01*
X0379677Y0237737D01*
X0379671Y0237869D01*
X0379669Y0238000D01*
X0379669Y0305000D02*
X0379671Y0305131D01*
X0379677Y0305263D01*
X0379687Y0305394D01*
X0379701Y0305525D01*
X0379719Y0305655D01*
X0379741Y0305784D01*
X0379766Y0305913D01*
X0379796Y0306041D01*
X0379830Y0306168D01*
X0379867Y0306295D01*
X0379908Y0306419D01*
X0379953Y0306543D01*
X0380002Y0306665D01*
X0380054Y0306786D01*
X0380110Y0306904D01*
X0380170Y0307022D01*
X0380233Y0307137D01*
X0380300Y0307250D01*
X0380370Y0307362D01*
X0380443Y0307471D01*
X0380519Y0307577D01*
X0380599Y0307682D01*
X0380682Y0307784D01*
X0380768Y0307883D01*
X0380857Y0307980D01*
X0380949Y0308074D01*
X0381044Y0308165D01*
X0381141Y0308254D01*
X0381241Y0308339D01*
X0381344Y0308421D01*
X0381449Y0308500D01*
X0381556Y0308576D01*
X0381666Y0308648D01*
X0381778Y0308717D01*
X0381892Y0308783D01*
X0382007Y0308845D01*
X0382125Y0308904D01*
X0382244Y0308959D01*
X0382365Y0309011D01*
X0382488Y0309058D01*
X0382612Y0309102D01*
X0382737Y0309143D01*
X0382863Y0309179D01*
X0382991Y0309212D01*
X0383119Y0309240D01*
X0383248Y0309265D01*
X0383378Y0309286D01*
X0383508Y0309303D01*
X0383639Y0309316D01*
X0383770Y0309325D01*
X0383901Y0309330D01*
X0384033Y0309331D01*
X0384164Y0309328D01*
X0384296Y0309321D01*
X0384427Y0309310D01*
X0384557Y0309295D01*
X0384687Y0309276D01*
X0384817Y0309253D01*
X0384945Y0309227D01*
X0385073Y0309196D01*
X0385200Y0309161D01*
X0385326Y0309123D01*
X0385450Y0309081D01*
X0385574Y0309035D01*
X0385695Y0308985D01*
X0385815Y0308932D01*
X0385934Y0308875D01*
X0386051Y0308815D01*
X0386165Y0308751D01*
X0386278Y0308683D01*
X0386389Y0308612D01*
X0386498Y0308538D01*
X0386604Y0308461D01*
X0386708Y0308380D01*
X0386809Y0308297D01*
X0386908Y0308210D01*
X0387004Y0308120D01*
X0387097Y0308027D01*
X0387188Y0307932D01*
X0387275Y0307834D01*
X0387360Y0307733D01*
X0387441Y0307630D01*
X0387519Y0307524D01*
X0387594Y0307416D01*
X0387666Y0307306D01*
X0387734Y0307194D01*
X0387799Y0307080D01*
X0387860Y0306963D01*
X0387918Y0306845D01*
X0387972Y0306725D01*
X0388023Y0306604D01*
X0388070Y0306481D01*
X0388113Y0306357D01*
X0388152Y0306232D01*
X0388188Y0306105D01*
X0388219Y0305977D01*
X0388247Y0305849D01*
X0388271Y0305720D01*
X0388291Y0305590D01*
X0388307Y0305459D01*
X0388319Y0305328D01*
X0388327Y0305197D01*
X0388331Y0305066D01*
X0388331Y0304934D01*
X0388327Y0304803D01*
X0388319Y0304672D01*
X0388307Y0304541D01*
X0388291Y0304410D01*
X0388271Y0304280D01*
X0388247Y0304151D01*
X0388219Y0304023D01*
X0388188Y0303895D01*
X0388152Y0303768D01*
X0388113Y0303643D01*
X0388070Y0303519D01*
X0388023Y0303396D01*
X0387972Y0303275D01*
X0387918Y0303155D01*
X0387860Y0303037D01*
X0387799Y0302920D01*
X0387734Y0302806D01*
X0387666Y0302694D01*
X0387594Y0302584D01*
X0387519Y0302476D01*
X0387441Y0302370D01*
X0387360Y0302267D01*
X0387275Y0302166D01*
X0387188Y0302068D01*
X0387097Y0301973D01*
X0387004Y0301880D01*
X0386908Y0301790D01*
X0386809Y0301703D01*
X0386708Y0301620D01*
X0386604Y0301539D01*
X0386498Y0301462D01*
X0386389Y0301388D01*
X0386278Y0301317D01*
X0386166Y0301249D01*
X0386051Y0301185D01*
X0385934Y0301125D01*
X0385815Y0301068D01*
X0385695Y0301015D01*
X0385574Y0300965D01*
X0385450Y0300919D01*
X0385326Y0300877D01*
X0385200Y0300839D01*
X0385073Y0300804D01*
X0384945Y0300773D01*
X0384817Y0300747D01*
X0384687Y0300724D01*
X0384557Y0300705D01*
X0384427Y0300690D01*
X0384296Y0300679D01*
X0384164Y0300672D01*
X0384033Y0300669D01*
X0383901Y0300670D01*
X0383770Y0300675D01*
X0383639Y0300684D01*
X0383508Y0300697D01*
X0383378Y0300714D01*
X0383248Y0300735D01*
X0383119Y0300760D01*
X0382991Y0300788D01*
X0382863Y0300821D01*
X0382737Y0300857D01*
X0382612Y0300898D01*
X0382488Y0300942D01*
X0382365Y0300989D01*
X0382244Y0301041D01*
X0382125Y0301096D01*
X0382007Y0301155D01*
X0381892Y0301217D01*
X0381778Y0301283D01*
X0381666Y0301352D01*
X0381556Y0301424D01*
X0381449Y0301500D01*
X0381344Y0301579D01*
X0381241Y0301661D01*
X0381141Y0301746D01*
X0381044Y0301835D01*
X0380949Y0301926D01*
X0380857Y0302020D01*
X0380768Y0302117D01*
X0380682Y0302216D01*
X0380599Y0302318D01*
X0380519Y0302423D01*
X0380443Y0302529D01*
X0380370Y0302638D01*
X0380300Y0302750D01*
X0380233Y0302863D01*
X0380170Y0302978D01*
X0380110Y0303096D01*
X0380054Y0303214D01*
X0380002Y0303335D01*
X0379953Y0303457D01*
X0379908Y0303581D01*
X0379867Y0303705D01*
X0379830Y0303832D01*
X0379796Y0303959D01*
X0379766Y0304087D01*
X0379741Y0304216D01*
X0379719Y0304345D01*
X0379701Y0304475D01*
X0379687Y0304606D01*
X0379677Y0304737D01*
X0379671Y0304869D01*
X0379669Y0305000D01*
X0379669Y0338000D02*
X0379671Y0338131D01*
X0379677Y0338263D01*
X0379687Y0338394D01*
X0379701Y0338525D01*
X0379719Y0338655D01*
X0379741Y0338784D01*
X0379766Y0338913D01*
X0379796Y0339041D01*
X0379830Y0339168D01*
X0379867Y0339295D01*
X0379908Y0339419D01*
X0379953Y0339543D01*
X0380002Y0339665D01*
X0380054Y0339786D01*
X0380110Y0339904D01*
X0380170Y0340022D01*
X0380233Y0340137D01*
X0380300Y0340250D01*
X0380370Y0340362D01*
X0380443Y0340471D01*
X0380519Y0340577D01*
X0380599Y0340682D01*
X0380682Y0340784D01*
X0380768Y0340883D01*
X0380857Y0340980D01*
X0380949Y0341074D01*
X0381044Y0341165D01*
X0381141Y0341254D01*
X0381241Y0341339D01*
X0381344Y0341421D01*
X0381449Y0341500D01*
X0381556Y0341576D01*
X0381666Y0341648D01*
X0381778Y0341717D01*
X0381892Y0341783D01*
X0382007Y0341845D01*
X0382125Y0341904D01*
X0382244Y0341959D01*
X0382365Y0342011D01*
X0382488Y0342058D01*
X0382612Y0342102D01*
X0382737Y0342143D01*
X0382863Y0342179D01*
X0382991Y0342212D01*
X0383119Y0342240D01*
X0383248Y0342265D01*
X0383378Y0342286D01*
X0383508Y0342303D01*
X0383639Y0342316D01*
X0383770Y0342325D01*
X0383901Y0342330D01*
X0384033Y0342331D01*
X0384164Y0342328D01*
X0384296Y0342321D01*
X0384427Y0342310D01*
X0384557Y0342295D01*
X0384687Y0342276D01*
X0384817Y0342253D01*
X0384945Y0342227D01*
X0385073Y0342196D01*
X0385200Y0342161D01*
X0385326Y0342123D01*
X0385450Y0342081D01*
X0385574Y0342035D01*
X0385695Y0341985D01*
X0385815Y0341932D01*
X0385934Y0341875D01*
X0386051Y0341815D01*
X0386165Y0341751D01*
X0386278Y0341683D01*
X0386389Y0341612D01*
X0386498Y0341538D01*
X0386604Y0341461D01*
X0386708Y0341380D01*
X0386809Y0341297D01*
X0386908Y0341210D01*
X0387004Y0341120D01*
X0387097Y0341027D01*
X0387188Y0340932D01*
X0387275Y0340834D01*
X0387360Y0340733D01*
X0387441Y0340630D01*
X0387519Y0340524D01*
X0387594Y0340416D01*
X0387666Y0340306D01*
X0387734Y0340194D01*
X0387799Y0340080D01*
X0387860Y0339963D01*
X0387918Y0339845D01*
X0387972Y0339725D01*
X0388023Y0339604D01*
X0388070Y0339481D01*
X0388113Y0339357D01*
X0388152Y0339232D01*
X0388188Y0339105D01*
X0388219Y0338977D01*
X0388247Y0338849D01*
X0388271Y0338720D01*
X0388291Y0338590D01*
X0388307Y0338459D01*
X0388319Y0338328D01*
X0388327Y0338197D01*
X0388331Y0338066D01*
X0388331Y0337934D01*
X0388327Y0337803D01*
X0388319Y0337672D01*
X0388307Y0337541D01*
X0388291Y0337410D01*
X0388271Y0337280D01*
X0388247Y0337151D01*
X0388219Y0337023D01*
X0388188Y0336895D01*
X0388152Y0336768D01*
X0388113Y0336643D01*
X0388070Y0336519D01*
X0388023Y0336396D01*
X0387972Y0336275D01*
X0387918Y0336155D01*
X0387860Y0336037D01*
X0387799Y0335920D01*
X0387734Y0335806D01*
X0387666Y0335694D01*
X0387594Y0335584D01*
X0387519Y0335476D01*
X0387441Y0335370D01*
X0387360Y0335267D01*
X0387275Y0335166D01*
X0387188Y0335068D01*
X0387097Y0334973D01*
X0387004Y0334880D01*
X0386908Y0334790D01*
X0386809Y0334703D01*
X0386708Y0334620D01*
X0386604Y0334539D01*
X0386498Y0334462D01*
X0386389Y0334388D01*
X0386278Y0334317D01*
X0386166Y0334249D01*
X0386051Y0334185D01*
X0385934Y0334125D01*
X0385815Y0334068D01*
X0385695Y0334015D01*
X0385574Y0333965D01*
X0385450Y0333919D01*
X0385326Y0333877D01*
X0385200Y0333839D01*
X0385073Y0333804D01*
X0384945Y0333773D01*
X0384817Y0333747D01*
X0384687Y0333724D01*
X0384557Y0333705D01*
X0384427Y0333690D01*
X0384296Y0333679D01*
X0384164Y0333672D01*
X0384033Y0333669D01*
X0383901Y0333670D01*
X0383770Y0333675D01*
X0383639Y0333684D01*
X0383508Y0333697D01*
X0383378Y0333714D01*
X0383248Y0333735D01*
X0383119Y0333760D01*
X0382991Y0333788D01*
X0382863Y0333821D01*
X0382737Y0333857D01*
X0382612Y0333898D01*
X0382488Y0333942D01*
X0382365Y0333989D01*
X0382244Y0334041D01*
X0382125Y0334096D01*
X0382007Y0334155D01*
X0381892Y0334217D01*
X0381778Y0334283D01*
X0381666Y0334352D01*
X0381556Y0334424D01*
X0381449Y0334500D01*
X0381344Y0334579D01*
X0381241Y0334661D01*
X0381141Y0334746D01*
X0381044Y0334835D01*
X0380949Y0334926D01*
X0380857Y0335020D01*
X0380768Y0335117D01*
X0380682Y0335216D01*
X0380599Y0335318D01*
X0380519Y0335423D01*
X0380443Y0335529D01*
X0380370Y0335638D01*
X0380300Y0335750D01*
X0380233Y0335863D01*
X0380170Y0335978D01*
X0380110Y0336096D01*
X0380054Y0336214D01*
X0380002Y0336335D01*
X0379953Y0336457D01*
X0379908Y0336581D01*
X0379867Y0336705D01*
X0379830Y0336832D01*
X0379796Y0336959D01*
X0379766Y0337087D01*
X0379741Y0337216D01*
X0379719Y0337345D01*
X0379701Y0337475D01*
X0379687Y0337606D01*
X0379677Y0337737D01*
X0379671Y0337869D01*
X0379669Y0338000D01*
X0310000Y0371500D02*
X0310002Y0371661D01*
X0310008Y0371821D01*
X0310018Y0371982D01*
X0310032Y0372142D01*
X0310050Y0372302D01*
X0310071Y0372461D01*
X0310097Y0372620D01*
X0310127Y0372778D01*
X0310160Y0372935D01*
X0310198Y0373092D01*
X0310239Y0373247D01*
X0310284Y0373401D01*
X0310333Y0373554D01*
X0310386Y0373706D01*
X0310442Y0373857D01*
X0310503Y0374006D01*
X0310566Y0374154D01*
X0310634Y0374300D01*
X0310705Y0374444D01*
X0310779Y0374586D01*
X0310857Y0374727D01*
X0310939Y0374865D01*
X0311024Y0375002D01*
X0311112Y0375136D01*
X0311204Y0375268D01*
X0311299Y0375398D01*
X0311397Y0375526D01*
X0311498Y0375651D01*
X0311602Y0375773D01*
X0311709Y0375893D01*
X0311819Y0376010D01*
X0311932Y0376125D01*
X0312048Y0376236D01*
X0312167Y0376345D01*
X0312288Y0376450D01*
X0312412Y0376553D01*
X0312538Y0376653D01*
X0312666Y0376749D01*
X0312797Y0376842D01*
X0312931Y0376932D01*
X0313066Y0377019D01*
X0313204Y0377102D01*
X0313343Y0377182D01*
X0313485Y0377258D01*
X0313628Y0377331D01*
X0313773Y0377400D01*
X0313920Y0377466D01*
X0314068Y0377528D01*
X0314218Y0377586D01*
X0314369Y0377641D01*
X0314522Y0377692D01*
X0314676Y0377739D01*
X0314831Y0377782D01*
X0314987Y0377821D01*
X0315143Y0377857D01*
X0315301Y0377888D01*
X0315459Y0377916D01*
X0315618Y0377940D01*
X0315778Y0377960D01*
X0315938Y0377976D01*
X0316098Y0377988D01*
X0316259Y0377996D01*
X0316420Y0378000D01*
X0316580Y0378000D01*
X0316741Y0377996D01*
X0316902Y0377988D01*
X0317062Y0377976D01*
X0317222Y0377960D01*
X0317382Y0377940D01*
X0317541Y0377916D01*
X0317699Y0377888D01*
X0317857Y0377857D01*
X0318013Y0377821D01*
X0318169Y0377782D01*
X0318324Y0377739D01*
X0318478Y0377692D01*
X0318631Y0377641D01*
X0318782Y0377586D01*
X0318932Y0377528D01*
X0319080Y0377466D01*
X0319227Y0377400D01*
X0319372Y0377331D01*
X0319515Y0377258D01*
X0319657Y0377182D01*
X0319796Y0377102D01*
X0319934Y0377019D01*
X0320069Y0376932D01*
X0320203Y0376842D01*
X0320334Y0376749D01*
X0320462Y0376653D01*
X0320588Y0376553D01*
X0320712Y0376450D01*
X0320833Y0376345D01*
X0320952Y0376236D01*
X0321068Y0376125D01*
X0321181Y0376010D01*
X0321291Y0375893D01*
X0321398Y0375773D01*
X0321502Y0375651D01*
X0321603Y0375526D01*
X0321701Y0375398D01*
X0321796Y0375268D01*
X0321888Y0375136D01*
X0321976Y0375002D01*
X0322061Y0374865D01*
X0322143Y0374727D01*
X0322221Y0374586D01*
X0322295Y0374444D01*
X0322366Y0374300D01*
X0322434Y0374154D01*
X0322497Y0374006D01*
X0322558Y0373857D01*
X0322614Y0373706D01*
X0322667Y0373554D01*
X0322716Y0373401D01*
X0322761Y0373247D01*
X0322802Y0373092D01*
X0322840Y0372935D01*
X0322873Y0372778D01*
X0322903Y0372620D01*
X0322929Y0372461D01*
X0322950Y0372302D01*
X0322968Y0372142D01*
X0322982Y0371982D01*
X0322992Y0371821D01*
X0322998Y0371661D01*
X0323000Y0371500D01*
X0322998Y0371339D01*
X0322992Y0371179D01*
X0322982Y0371018D01*
X0322968Y0370858D01*
X0322950Y0370698D01*
X0322929Y0370539D01*
X0322903Y0370380D01*
X0322873Y0370222D01*
X0322840Y0370065D01*
X0322802Y0369908D01*
X0322761Y0369753D01*
X0322716Y0369599D01*
X0322667Y0369446D01*
X0322614Y0369294D01*
X0322558Y0369143D01*
X0322497Y0368994D01*
X0322434Y0368846D01*
X0322366Y0368700D01*
X0322295Y0368556D01*
X0322221Y0368414D01*
X0322143Y0368273D01*
X0322061Y0368135D01*
X0321976Y0367998D01*
X0321888Y0367864D01*
X0321796Y0367732D01*
X0321701Y0367602D01*
X0321603Y0367474D01*
X0321502Y0367349D01*
X0321398Y0367227D01*
X0321291Y0367107D01*
X0321181Y0366990D01*
X0321068Y0366875D01*
X0320952Y0366764D01*
X0320833Y0366655D01*
X0320712Y0366550D01*
X0320588Y0366447D01*
X0320462Y0366347D01*
X0320334Y0366251D01*
X0320203Y0366158D01*
X0320069Y0366068D01*
X0319934Y0365981D01*
X0319796Y0365898D01*
X0319657Y0365818D01*
X0319515Y0365742D01*
X0319372Y0365669D01*
X0319227Y0365600D01*
X0319080Y0365534D01*
X0318932Y0365472D01*
X0318782Y0365414D01*
X0318631Y0365359D01*
X0318478Y0365308D01*
X0318324Y0365261D01*
X0318169Y0365218D01*
X0318013Y0365179D01*
X0317857Y0365143D01*
X0317699Y0365112D01*
X0317541Y0365084D01*
X0317382Y0365060D01*
X0317222Y0365040D01*
X0317062Y0365024D01*
X0316902Y0365012D01*
X0316741Y0365004D01*
X0316580Y0365000D01*
X0316420Y0365000D01*
X0316259Y0365004D01*
X0316098Y0365012D01*
X0315938Y0365024D01*
X0315778Y0365040D01*
X0315618Y0365060D01*
X0315459Y0365084D01*
X0315301Y0365112D01*
X0315143Y0365143D01*
X0314987Y0365179D01*
X0314831Y0365218D01*
X0314676Y0365261D01*
X0314522Y0365308D01*
X0314369Y0365359D01*
X0314218Y0365414D01*
X0314068Y0365472D01*
X0313920Y0365534D01*
X0313773Y0365600D01*
X0313628Y0365669D01*
X0313485Y0365742D01*
X0313343Y0365818D01*
X0313204Y0365898D01*
X0313066Y0365981D01*
X0312931Y0366068D01*
X0312797Y0366158D01*
X0312666Y0366251D01*
X0312538Y0366347D01*
X0312412Y0366447D01*
X0312288Y0366550D01*
X0312167Y0366655D01*
X0312048Y0366764D01*
X0311932Y0366875D01*
X0311819Y0366990D01*
X0311709Y0367107D01*
X0311602Y0367227D01*
X0311498Y0367349D01*
X0311397Y0367474D01*
X0311299Y0367602D01*
X0311204Y0367732D01*
X0311112Y0367864D01*
X0311024Y0367998D01*
X0310939Y0368135D01*
X0310857Y0368273D01*
X0310779Y0368414D01*
X0310705Y0368556D01*
X0310634Y0368700D01*
X0310566Y0368846D01*
X0310503Y0368994D01*
X0310442Y0369143D01*
X0310386Y0369294D01*
X0310333Y0369446D01*
X0310284Y0369599D01*
X0310239Y0369753D01*
X0310198Y0369908D01*
X0310160Y0370065D01*
X0310127Y0370222D01*
X0310097Y0370380D01*
X0310071Y0370539D01*
X0310050Y0370698D01*
X0310032Y0370858D01*
X0310018Y0371018D01*
X0310008Y0371179D01*
X0310002Y0371339D01*
X0310000Y0371500D01*
X0280000Y0371500D02*
X0280002Y0371661D01*
X0280008Y0371821D01*
X0280018Y0371982D01*
X0280032Y0372142D01*
X0280050Y0372302D01*
X0280071Y0372461D01*
X0280097Y0372620D01*
X0280127Y0372778D01*
X0280160Y0372935D01*
X0280198Y0373092D01*
X0280239Y0373247D01*
X0280284Y0373401D01*
X0280333Y0373554D01*
X0280386Y0373706D01*
X0280442Y0373857D01*
X0280503Y0374006D01*
X0280566Y0374154D01*
X0280634Y0374300D01*
X0280705Y0374444D01*
X0280779Y0374586D01*
X0280857Y0374727D01*
X0280939Y0374865D01*
X0281024Y0375002D01*
X0281112Y0375136D01*
X0281204Y0375268D01*
X0281299Y0375398D01*
X0281397Y0375526D01*
X0281498Y0375651D01*
X0281602Y0375773D01*
X0281709Y0375893D01*
X0281819Y0376010D01*
X0281932Y0376125D01*
X0282048Y0376236D01*
X0282167Y0376345D01*
X0282288Y0376450D01*
X0282412Y0376553D01*
X0282538Y0376653D01*
X0282666Y0376749D01*
X0282797Y0376842D01*
X0282931Y0376932D01*
X0283066Y0377019D01*
X0283204Y0377102D01*
X0283343Y0377182D01*
X0283485Y0377258D01*
X0283628Y0377331D01*
X0283773Y0377400D01*
X0283920Y0377466D01*
X0284068Y0377528D01*
X0284218Y0377586D01*
X0284369Y0377641D01*
X0284522Y0377692D01*
X0284676Y0377739D01*
X0284831Y0377782D01*
X0284987Y0377821D01*
X0285143Y0377857D01*
X0285301Y0377888D01*
X0285459Y0377916D01*
X0285618Y0377940D01*
X0285778Y0377960D01*
X0285938Y0377976D01*
X0286098Y0377988D01*
X0286259Y0377996D01*
X0286420Y0378000D01*
X0286580Y0378000D01*
X0286741Y0377996D01*
X0286902Y0377988D01*
X0287062Y0377976D01*
X0287222Y0377960D01*
X0287382Y0377940D01*
X0287541Y0377916D01*
X0287699Y0377888D01*
X0287857Y0377857D01*
X0288013Y0377821D01*
X0288169Y0377782D01*
X0288324Y0377739D01*
X0288478Y0377692D01*
X0288631Y0377641D01*
X0288782Y0377586D01*
X0288932Y0377528D01*
X0289080Y0377466D01*
X0289227Y0377400D01*
X0289372Y0377331D01*
X0289515Y0377258D01*
X0289657Y0377182D01*
X0289796Y0377102D01*
X0289934Y0377019D01*
X0290069Y0376932D01*
X0290203Y0376842D01*
X0290334Y0376749D01*
X0290462Y0376653D01*
X0290588Y0376553D01*
X0290712Y0376450D01*
X0290833Y0376345D01*
X0290952Y0376236D01*
X0291068Y0376125D01*
X0291181Y0376010D01*
X0291291Y0375893D01*
X0291398Y0375773D01*
X0291502Y0375651D01*
X0291603Y0375526D01*
X0291701Y0375398D01*
X0291796Y0375268D01*
X0291888Y0375136D01*
X0291976Y0375002D01*
X0292061Y0374865D01*
X0292143Y0374727D01*
X0292221Y0374586D01*
X0292295Y0374444D01*
X0292366Y0374300D01*
X0292434Y0374154D01*
X0292497Y0374006D01*
X0292558Y0373857D01*
X0292614Y0373706D01*
X0292667Y0373554D01*
X0292716Y0373401D01*
X0292761Y0373247D01*
X0292802Y0373092D01*
X0292840Y0372935D01*
X0292873Y0372778D01*
X0292903Y0372620D01*
X0292929Y0372461D01*
X0292950Y0372302D01*
X0292968Y0372142D01*
X0292982Y0371982D01*
X0292992Y0371821D01*
X0292998Y0371661D01*
X0293000Y0371500D01*
X0292998Y0371339D01*
X0292992Y0371179D01*
X0292982Y0371018D01*
X0292968Y0370858D01*
X0292950Y0370698D01*
X0292929Y0370539D01*
X0292903Y0370380D01*
X0292873Y0370222D01*
X0292840Y0370065D01*
X0292802Y0369908D01*
X0292761Y0369753D01*
X0292716Y0369599D01*
X0292667Y0369446D01*
X0292614Y0369294D01*
X0292558Y0369143D01*
X0292497Y0368994D01*
X0292434Y0368846D01*
X0292366Y0368700D01*
X0292295Y0368556D01*
X0292221Y0368414D01*
X0292143Y0368273D01*
X0292061Y0368135D01*
X0291976Y0367998D01*
X0291888Y0367864D01*
X0291796Y0367732D01*
X0291701Y0367602D01*
X0291603Y0367474D01*
X0291502Y0367349D01*
X0291398Y0367227D01*
X0291291Y0367107D01*
X0291181Y0366990D01*
X0291068Y0366875D01*
X0290952Y0366764D01*
X0290833Y0366655D01*
X0290712Y0366550D01*
X0290588Y0366447D01*
X0290462Y0366347D01*
X0290334Y0366251D01*
X0290203Y0366158D01*
X0290069Y0366068D01*
X0289934Y0365981D01*
X0289796Y0365898D01*
X0289657Y0365818D01*
X0289515Y0365742D01*
X0289372Y0365669D01*
X0289227Y0365600D01*
X0289080Y0365534D01*
X0288932Y0365472D01*
X0288782Y0365414D01*
X0288631Y0365359D01*
X0288478Y0365308D01*
X0288324Y0365261D01*
X0288169Y0365218D01*
X0288013Y0365179D01*
X0287857Y0365143D01*
X0287699Y0365112D01*
X0287541Y0365084D01*
X0287382Y0365060D01*
X0287222Y0365040D01*
X0287062Y0365024D01*
X0286902Y0365012D01*
X0286741Y0365004D01*
X0286580Y0365000D01*
X0286420Y0365000D01*
X0286259Y0365004D01*
X0286098Y0365012D01*
X0285938Y0365024D01*
X0285778Y0365040D01*
X0285618Y0365060D01*
X0285459Y0365084D01*
X0285301Y0365112D01*
X0285143Y0365143D01*
X0284987Y0365179D01*
X0284831Y0365218D01*
X0284676Y0365261D01*
X0284522Y0365308D01*
X0284369Y0365359D01*
X0284218Y0365414D01*
X0284068Y0365472D01*
X0283920Y0365534D01*
X0283773Y0365600D01*
X0283628Y0365669D01*
X0283485Y0365742D01*
X0283343Y0365818D01*
X0283204Y0365898D01*
X0283066Y0365981D01*
X0282931Y0366068D01*
X0282797Y0366158D01*
X0282666Y0366251D01*
X0282538Y0366347D01*
X0282412Y0366447D01*
X0282288Y0366550D01*
X0282167Y0366655D01*
X0282048Y0366764D01*
X0281932Y0366875D01*
X0281819Y0366990D01*
X0281709Y0367107D01*
X0281602Y0367227D01*
X0281498Y0367349D01*
X0281397Y0367474D01*
X0281299Y0367602D01*
X0281204Y0367732D01*
X0281112Y0367864D01*
X0281024Y0367998D01*
X0280939Y0368135D01*
X0280857Y0368273D01*
X0280779Y0368414D01*
X0280705Y0368556D01*
X0280634Y0368700D01*
X0280566Y0368846D01*
X0280503Y0368994D01*
X0280442Y0369143D01*
X0280386Y0369294D01*
X0280333Y0369446D01*
X0280284Y0369599D01*
X0280239Y0369753D01*
X0280198Y0369908D01*
X0280160Y0370065D01*
X0280127Y0370222D01*
X0280097Y0370380D01*
X0280071Y0370539D01*
X0280050Y0370698D01*
X0280032Y0370858D01*
X0280018Y0371018D01*
X0280008Y0371179D01*
X0280002Y0371339D01*
X0280000Y0371500D01*
X0240000Y0371500D02*
X0240002Y0371661D01*
X0240008Y0371821D01*
X0240018Y0371982D01*
X0240032Y0372142D01*
X0240050Y0372302D01*
X0240071Y0372461D01*
X0240097Y0372620D01*
X0240127Y0372778D01*
X0240160Y0372935D01*
X0240198Y0373092D01*
X0240239Y0373247D01*
X0240284Y0373401D01*
X0240333Y0373554D01*
X0240386Y0373706D01*
X0240442Y0373857D01*
X0240503Y0374006D01*
X0240566Y0374154D01*
X0240634Y0374300D01*
X0240705Y0374444D01*
X0240779Y0374586D01*
X0240857Y0374727D01*
X0240939Y0374865D01*
X0241024Y0375002D01*
X0241112Y0375136D01*
X0241204Y0375268D01*
X0241299Y0375398D01*
X0241397Y0375526D01*
X0241498Y0375651D01*
X0241602Y0375773D01*
X0241709Y0375893D01*
X0241819Y0376010D01*
X0241932Y0376125D01*
X0242048Y0376236D01*
X0242167Y0376345D01*
X0242288Y0376450D01*
X0242412Y0376553D01*
X0242538Y0376653D01*
X0242666Y0376749D01*
X0242797Y0376842D01*
X0242931Y0376932D01*
X0243066Y0377019D01*
X0243204Y0377102D01*
X0243343Y0377182D01*
X0243485Y0377258D01*
X0243628Y0377331D01*
X0243773Y0377400D01*
X0243920Y0377466D01*
X0244068Y0377528D01*
X0244218Y0377586D01*
X0244369Y0377641D01*
X0244522Y0377692D01*
X0244676Y0377739D01*
X0244831Y0377782D01*
X0244987Y0377821D01*
X0245143Y0377857D01*
X0245301Y0377888D01*
X0245459Y0377916D01*
X0245618Y0377940D01*
X0245778Y0377960D01*
X0245938Y0377976D01*
X0246098Y0377988D01*
X0246259Y0377996D01*
X0246420Y0378000D01*
X0246580Y0378000D01*
X0246741Y0377996D01*
X0246902Y0377988D01*
X0247062Y0377976D01*
X0247222Y0377960D01*
X0247382Y0377940D01*
X0247541Y0377916D01*
X0247699Y0377888D01*
X0247857Y0377857D01*
X0248013Y0377821D01*
X0248169Y0377782D01*
X0248324Y0377739D01*
X0248478Y0377692D01*
X0248631Y0377641D01*
X0248782Y0377586D01*
X0248932Y0377528D01*
X0249080Y0377466D01*
X0249227Y0377400D01*
X0249372Y0377331D01*
X0249515Y0377258D01*
X0249657Y0377182D01*
X0249796Y0377102D01*
X0249934Y0377019D01*
X0250069Y0376932D01*
X0250203Y0376842D01*
X0250334Y0376749D01*
X0250462Y0376653D01*
X0250588Y0376553D01*
X0250712Y0376450D01*
X0250833Y0376345D01*
X0250952Y0376236D01*
X0251068Y0376125D01*
X0251181Y0376010D01*
X0251291Y0375893D01*
X0251398Y0375773D01*
X0251502Y0375651D01*
X0251603Y0375526D01*
X0251701Y0375398D01*
X0251796Y0375268D01*
X0251888Y0375136D01*
X0251976Y0375002D01*
X0252061Y0374865D01*
X0252143Y0374727D01*
X0252221Y0374586D01*
X0252295Y0374444D01*
X0252366Y0374300D01*
X0252434Y0374154D01*
X0252497Y0374006D01*
X0252558Y0373857D01*
X0252614Y0373706D01*
X0252667Y0373554D01*
X0252716Y0373401D01*
X0252761Y0373247D01*
X0252802Y0373092D01*
X0252840Y0372935D01*
X0252873Y0372778D01*
X0252903Y0372620D01*
X0252929Y0372461D01*
X0252950Y0372302D01*
X0252968Y0372142D01*
X0252982Y0371982D01*
X0252992Y0371821D01*
X0252998Y0371661D01*
X0253000Y0371500D01*
X0252998Y0371339D01*
X0252992Y0371179D01*
X0252982Y0371018D01*
X0252968Y0370858D01*
X0252950Y0370698D01*
X0252929Y0370539D01*
X0252903Y0370380D01*
X0252873Y0370222D01*
X0252840Y0370065D01*
X0252802Y0369908D01*
X0252761Y0369753D01*
X0252716Y0369599D01*
X0252667Y0369446D01*
X0252614Y0369294D01*
X0252558Y0369143D01*
X0252497Y0368994D01*
X0252434Y0368846D01*
X0252366Y0368700D01*
X0252295Y0368556D01*
X0252221Y0368414D01*
X0252143Y0368273D01*
X0252061Y0368135D01*
X0251976Y0367998D01*
X0251888Y0367864D01*
X0251796Y0367732D01*
X0251701Y0367602D01*
X0251603Y0367474D01*
X0251502Y0367349D01*
X0251398Y0367227D01*
X0251291Y0367107D01*
X0251181Y0366990D01*
X0251068Y0366875D01*
X0250952Y0366764D01*
X0250833Y0366655D01*
X0250712Y0366550D01*
X0250588Y0366447D01*
X0250462Y0366347D01*
X0250334Y0366251D01*
X0250203Y0366158D01*
X0250069Y0366068D01*
X0249934Y0365981D01*
X0249796Y0365898D01*
X0249657Y0365818D01*
X0249515Y0365742D01*
X0249372Y0365669D01*
X0249227Y0365600D01*
X0249080Y0365534D01*
X0248932Y0365472D01*
X0248782Y0365414D01*
X0248631Y0365359D01*
X0248478Y0365308D01*
X0248324Y0365261D01*
X0248169Y0365218D01*
X0248013Y0365179D01*
X0247857Y0365143D01*
X0247699Y0365112D01*
X0247541Y0365084D01*
X0247382Y0365060D01*
X0247222Y0365040D01*
X0247062Y0365024D01*
X0246902Y0365012D01*
X0246741Y0365004D01*
X0246580Y0365000D01*
X0246420Y0365000D01*
X0246259Y0365004D01*
X0246098Y0365012D01*
X0245938Y0365024D01*
X0245778Y0365040D01*
X0245618Y0365060D01*
X0245459Y0365084D01*
X0245301Y0365112D01*
X0245143Y0365143D01*
X0244987Y0365179D01*
X0244831Y0365218D01*
X0244676Y0365261D01*
X0244522Y0365308D01*
X0244369Y0365359D01*
X0244218Y0365414D01*
X0244068Y0365472D01*
X0243920Y0365534D01*
X0243773Y0365600D01*
X0243628Y0365669D01*
X0243485Y0365742D01*
X0243343Y0365818D01*
X0243204Y0365898D01*
X0243066Y0365981D01*
X0242931Y0366068D01*
X0242797Y0366158D01*
X0242666Y0366251D01*
X0242538Y0366347D01*
X0242412Y0366447D01*
X0242288Y0366550D01*
X0242167Y0366655D01*
X0242048Y0366764D01*
X0241932Y0366875D01*
X0241819Y0366990D01*
X0241709Y0367107D01*
X0241602Y0367227D01*
X0241498Y0367349D01*
X0241397Y0367474D01*
X0241299Y0367602D01*
X0241204Y0367732D01*
X0241112Y0367864D01*
X0241024Y0367998D01*
X0240939Y0368135D01*
X0240857Y0368273D01*
X0240779Y0368414D01*
X0240705Y0368556D01*
X0240634Y0368700D01*
X0240566Y0368846D01*
X0240503Y0368994D01*
X0240442Y0369143D01*
X0240386Y0369294D01*
X0240333Y0369446D01*
X0240284Y0369599D01*
X0240239Y0369753D01*
X0240198Y0369908D01*
X0240160Y0370065D01*
X0240127Y0370222D01*
X0240097Y0370380D01*
X0240071Y0370539D01*
X0240050Y0370698D01*
X0240032Y0370858D01*
X0240018Y0371018D01*
X0240008Y0371179D01*
X0240002Y0371339D01*
X0240000Y0371500D01*
X0210000Y0371500D02*
X0210002Y0371661D01*
X0210008Y0371821D01*
X0210018Y0371982D01*
X0210032Y0372142D01*
X0210050Y0372302D01*
X0210071Y0372461D01*
X0210097Y0372620D01*
X0210127Y0372778D01*
X0210160Y0372935D01*
X0210198Y0373092D01*
X0210239Y0373247D01*
X0210284Y0373401D01*
X0210333Y0373554D01*
X0210386Y0373706D01*
X0210442Y0373857D01*
X0210503Y0374006D01*
X0210566Y0374154D01*
X0210634Y0374300D01*
X0210705Y0374444D01*
X0210779Y0374586D01*
X0210857Y0374727D01*
X0210939Y0374865D01*
X0211024Y0375002D01*
X0211112Y0375136D01*
X0211204Y0375268D01*
X0211299Y0375398D01*
X0211397Y0375526D01*
X0211498Y0375651D01*
X0211602Y0375773D01*
X0211709Y0375893D01*
X0211819Y0376010D01*
X0211932Y0376125D01*
X0212048Y0376236D01*
X0212167Y0376345D01*
X0212288Y0376450D01*
X0212412Y0376553D01*
X0212538Y0376653D01*
X0212666Y0376749D01*
X0212797Y0376842D01*
X0212931Y0376932D01*
X0213066Y0377019D01*
X0213204Y0377102D01*
X0213343Y0377182D01*
X0213485Y0377258D01*
X0213628Y0377331D01*
X0213773Y0377400D01*
X0213920Y0377466D01*
X0214068Y0377528D01*
X0214218Y0377586D01*
X0214369Y0377641D01*
X0214522Y0377692D01*
X0214676Y0377739D01*
X0214831Y0377782D01*
X0214987Y0377821D01*
X0215143Y0377857D01*
X0215301Y0377888D01*
X0215459Y0377916D01*
X0215618Y0377940D01*
X0215778Y0377960D01*
X0215938Y0377976D01*
X0216098Y0377988D01*
X0216259Y0377996D01*
X0216420Y0378000D01*
X0216580Y0378000D01*
X0216741Y0377996D01*
X0216902Y0377988D01*
X0217062Y0377976D01*
X0217222Y0377960D01*
X0217382Y0377940D01*
X0217541Y0377916D01*
X0217699Y0377888D01*
X0217857Y0377857D01*
X0218013Y0377821D01*
X0218169Y0377782D01*
X0218324Y0377739D01*
X0218478Y0377692D01*
X0218631Y0377641D01*
X0218782Y0377586D01*
X0218932Y0377528D01*
X0219080Y0377466D01*
X0219227Y0377400D01*
X0219372Y0377331D01*
X0219515Y0377258D01*
X0219657Y0377182D01*
X0219796Y0377102D01*
X0219934Y0377019D01*
X0220069Y0376932D01*
X0220203Y0376842D01*
X0220334Y0376749D01*
X0220462Y0376653D01*
X0220588Y0376553D01*
X0220712Y0376450D01*
X0220833Y0376345D01*
X0220952Y0376236D01*
X0221068Y0376125D01*
X0221181Y0376010D01*
X0221291Y0375893D01*
X0221398Y0375773D01*
X0221502Y0375651D01*
X0221603Y0375526D01*
X0221701Y0375398D01*
X0221796Y0375268D01*
X0221888Y0375136D01*
X0221976Y0375002D01*
X0222061Y0374865D01*
X0222143Y0374727D01*
X0222221Y0374586D01*
X0222295Y0374444D01*
X0222366Y0374300D01*
X0222434Y0374154D01*
X0222497Y0374006D01*
X0222558Y0373857D01*
X0222614Y0373706D01*
X0222667Y0373554D01*
X0222716Y0373401D01*
X0222761Y0373247D01*
X0222802Y0373092D01*
X0222840Y0372935D01*
X0222873Y0372778D01*
X0222903Y0372620D01*
X0222929Y0372461D01*
X0222950Y0372302D01*
X0222968Y0372142D01*
X0222982Y0371982D01*
X0222992Y0371821D01*
X0222998Y0371661D01*
X0223000Y0371500D01*
X0222998Y0371339D01*
X0222992Y0371179D01*
X0222982Y0371018D01*
X0222968Y0370858D01*
X0222950Y0370698D01*
X0222929Y0370539D01*
X0222903Y0370380D01*
X0222873Y0370222D01*
X0222840Y0370065D01*
X0222802Y0369908D01*
X0222761Y0369753D01*
X0222716Y0369599D01*
X0222667Y0369446D01*
X0222614Y0369294D01*
X0222558Y0369143D01*
X0222497Y0368994D01*
X0222434Y0368846D01*
X0222366Y0368700D01*
X0222295Y0368556D01*
X0222221Y0368414D01*
X0222143Y0368273D01*
X0222061Y0368135D01*
X0221976Y0367998D01*
X0221888Y0367864D01*
X0221796Y0367732D01*
X0221701Y0367602D01*
X0221603Y0367474D01*
X0221502Y0367349D01*
X0221398Y0367227D01*
X0221291Y0367107D01*
X0221181Y0366990D01*
X0221068Y0366875D01*
X0220952Y0366764D01*
X0220833Y0366655D01*
X0220712Y0366550D01*
X0220588Y0366447D01*
X0220462Y0366347D01*
X0220334Y0366251D01*
X0220203Y0366158D01*
X0220069Y0366068D01*
X0219934Y0365981D01*
X0219796Y0365898D01*
X0219657Y0365818D01*
X0219515Y0365742D01*
X0219372Y0365669D01*
X0219227Y0365600D01*
X0219080Y0365534D01*
X0218932Y0365472D01*
X0218782Y0365414D01*
X0218631Y0365359D01*
X0218478Y0365308D01*
X0218324Y0365261D01*
X0218169Y0365218D01*
X0218013Y0365179D01*
X0217857Y0365143D01*
X0217699Y0365112D01*
X0217541Y0365084D01*
X0217382Y0365060D01*
X0217222Y0365040D01*
X0217062Y0365024D01*
X0216902Y0365012D01*
X0216741Y0365004D01*
X0216580Y0365000D01*
X0216420Y0365000D01*
X0216259Y0365004D01*
X0216098Y0365012D01*
X0215938Y0365024D01*
X0215778Y0365040D01*
X0215618Y0365060D01*
X0215459Y0365084D01*
X0215301Y0365112D01*
X0215143Y0365143D01*
X0214987Y0365179D01*
X0214831Y0365218D01*
X0214676Y0365261D01*
X0214522Y0365308D01*
X0214369Y0365359D01*
X0214218Y0365414D01*
X0214068Y0365472D01*
X0213920Y0365534D01*
X0213773Y0365600D01*
X0213628Y0365669D01*
X0213485Y0365742D01*
X0213343Y0365818D01*
X0213204Y0365898D01*
X0213066Y0365981D01*
X0212931Y0366068D01*
X0212797Y0366158D01*
X0212666Y0366251D01*
X0212538Y0366347D01*
X0212412Y0366447D01*
X0212288Y0366550D01*
X0212167Y0366655D01*
X0212048Y0366764D01*
X0211932Y0366875D01*
X0211819Y0366990D01*
X0211709Y0367107D01*
X0211602Y0367227D01*
X0211498Y0367349D01*
X0211397Y0367474D01*
X0211299Y0367602D01*
X0211204Y0367732D01*
X0211112Y0367864D01*
X0211024Y0367998D01*
X0210939Y0368135D01*
X0210857Y0368273D01*
X0210779Y0368414D01*
X0210705Y0368556D01*
X0210634Y0368700D01*
X0210566Y0368846D01*
X0210503Y0368994D01*
X0210442Y0369143D01*
X0210386Y0369294D01*
X0210333Y0369446D01*
X0210284Y0369599D01*
X0210239Y0369753D01*
X0210198Y0369908D01*
X0210160Y0370065D01*
X0210127Y0370222D01*
X0210097Y0370380D01*
X0210071Y0370539D01*
X0210050Y0370698D01*
X0210032Y0370858D01*
X0210018Y0371018D01*
X0210008Y0371179D01*
X0210002Y0371339D01*
X0210000Y0371500D01*
D12*
X0350500Y0321500D02*
X0357500Y0321500D01*
X0371500Y0318000D02*
X0371500Y0325000D01*
X0371500Y0225000D02*
X0371500Y0218000D01*
X0357500Y0221500D02*
X0350500Y0221500D01*
M02*
