%
M48
M72
T01C0.02362
T02C0.02756
T03C0.03150
T04C0.03543
T05C0.04100
T06C0.04724
T07C0.05000
T08C0.06299
T09C0.06500
T10C0.08661
T11C0.13000
%
T01
X71500Y56500
X109000Y64000
X109000Y36500
X151500Y26500
X216500Y66500
X216500Y106500
X234000Y114000
X261500Y141500
X291500Y121500
X259000Y81500
X271500Y26500
X211500Y166500
X211500Y196500
X219000Y211500
X229000Y221500
X249000Y211500
X234000Y199000
X261500Y229000
X311500Y229000
X346500Y171500
X311500Y299000
X316500Y346500
X371500Y366500
X251500Y299000
X246500Y346500
X186500Y299000
X111500Y299000
X111500Y341500
X111500Y379000
X59000Y319000
X36500Y341500
X36500Y379000
X21500Y299000
X21500Y259000
X114000Y241500
X114000Y216500
X114000Y191500
X114000Y166500
X131500Y121500
X81500Y104000
X176500Y379000
T02
X141500Y379000
X141500Y369000
X141500Y359000
X141500Y349000
X141500Y339000
X141500Y329000
X141500Y319000
X141500Y309000
X141500Y299000
X141500Y289000
X141500Y279000
X141500Y269000
X141500Y259000
X141500Y249000
X81500Y249000
X81500Y259000
X81500Y269000
X81500Y279000
X81500Y289000
X81500Y299000
X81500Y309000
X81500Y319000
X81500Y329000
X81500Y339000
X81500Y349000
X81500Y359000
X81500Y369000
X81500Y379000
X321500Y181500
X321500Y161500
X371500Y161500
X371500Y181500
T03
X326500Y141500
X286500Y141500
X261500Y161500
X261500Y201500
X281500Y201500
X321500Y201500
X326500Y251500
X326500Y281500
X286500Y281500
X286500Y251500
X291500Y356500
X301500Y356500
X311500Y356500
X241500Y356500
X231500Y356500
X221500Y356500
X251500Y36500
X251500Y16500
X291500Y16500
X291500Y36500
T04
X26500Y26500
X26500Y36500
X26500Y46500
X26500Y56500
X26500Y66500
X26500Y76500
X26500Y86500
X26500Y96500
X26500Y106500
X26500Y116500
X26500Y126500
X26500Y136500
X26500Y146500
X26500Y156500
X26500Y166500
X26500Y176500
X26500Y186500
X26500Y196500
X26500Y206500
X26500Y216500
X36500Y216500
X36500Y206500
X36500Y196500
X36500Y186500
X36500Y176500
X36500Y166500
X36500Y156500
X36500Y146500
X36500Y136500
X36500Y126500
X36500Y116500
X36500Y106500
X36500Y96500
X36500Y86500
X36500Y76500
X36500Y66500
X36500Y56500
X36500Y46500
X36500Y36500
X36500Y26500
X186500Y26500
X186500Y36500
X186500Y46500
X196500Y46500
X196500Y36500
X196500Y26500
X196500Y56500
X196500Y66500
X196500Y76500
X186500Y76500
X186500Y66500
X186500Y56500
X186500Y86500
X186500Y96500
X186500Y106500
X196500Y106500
X196500Y96500
X196500Y86500
X196500Y116500
X196500Y126500
X196500Y136500
X186500Y136500
X186500Y126500
X186500Y116500
X186500Y146500
X186500Y156500
X186500Y166500
X196500Y166500
X196500Y156500
X196500Y146500
X196500Y176500
X196500Y186500
X196500Y196500
X186500Y196500
X186500Y186500
X186500Y176500
X186500Y206500
X186500Y216500
X196500Y216500
X196500Y206500
X306500Y79000
X306500Y69000
X316500Y64000
X316500Y54000
X316500Y44000
X306500Y39000
X306500Y49000
X306500Y59000
X316500Y74000
X316500Y84000
T05
X361000Y87500
X361000Y77500
X361000Y45500
X361000Y35500
T06
X354000Y221500
X371500Y221500
X371500Y321500
X354000Y321500
X71500Y76500
X71500Y36500
T07
X341500Y121500
X341500Y141500
X381500Y141500
X381500Y121500
X381500Y261500
X381500Y281500
X341500Y281500
X341500Y261500
T08
X81500Y86500
X81500Y66500
X81500Y46500
X81500Y26500
X61500Y26500
X61500Y46500
X61500Y66500
X61500Y86500
T09
X329500Y92000
X329500Y31000
T10
X384000Y205000
X384000Y238000
X384000Y305000
X384000Y338000
T11
X316500Y371500
X286500Y371500
X246500Y371500
X216500Y371500
X341500Y84000
X341500Y39000
M30
